<svg width="24" height="24" viewBox="0 0 24 24" fill="none" xmlns="http://www.w3.org/2000/svg">
<g clip-path="url(#clip0_616_1049)">
<path d="M20 3H19V1H17V3H7V1H5V3H4C2.9 3 2 3.9 2 5V21C2 22.1 2.9 23 4 23H20C21.1 23 22 22.1 22 21V5C22 3.9 21.1 3 20 3ZM20 21H4V10H20V21ZM20 8H4V5H20V8Z" fill="#999999"/>
<g clip-path="url(#clip1_616_1049)">
<path d="M9 11.5C9 11.5 9.87132 11.5 10.75 11.5M13 19.5L9.5 16C9.5 16 10.25 16 10.75 16C11.25 16 13.5 16.0309 13.5 13.75C13.5 11.4691 11.25 11.5 10.75 11.5M15 11.5C15 11.5 12.2145 11.5 10.75 11.5M9 13.75H15" stroke="#999999"/>
</g>
</g>
<defs>
<clipPath id="clip0_616_1049">
<rect width="24" height="24" fill="white"/>
</clipPath>
<clipPath id="clip1_616_1049">
<rect width="6" height="8" fill="white" transform="translate(9 11)"/>
</clipPath>
</defs>
</svg>
