<svg width="242" height="39" viewBox="0 0 242 39" fill="none" xmlns="http://www.w3.org/2000/svg">
<path d="M24.4963 4.2269H20.2031L18.4858 10.8098H20.7756L19.6307 15.6755L27.0723 7.66147H23.6377L24.4963 4.2269Z" stroke="white" stroke-width="0.871652" stroke-linecap="round" stroke-linejoin="round"/>
<path d="M21.6344 6.23041L21.062 8.52012" stroke="white" stroke-width="0.871652" stroke-linecap="round"/>
<circle cx="22.0635" cy="9.80805" r="9.15234" stroke="white" stroke-width="0.871652"/>
<path d="M15.3618 29.7545V24.683H18.7197V25.5671H16.4341V26.7755H18.4968V27.6595H16.4341V29.7545H15.3618ZM20.458 29.8263C20.2154 29.8263 19.9991 29.7842 19.8092 29.7C19.6194 29.6141 19.4692 29.4878 19.3586 29.3211C19.2496 29.1527 19.1951 28.9431 19.1951 28.6921C19.1951 28.4808 19.2339 28.3034 19.3115 28.1597C19.3891 28.0161 19.4948 27.9005 19.6285 27.813C19.7622 27.7256 19.9141 27.6595 20.0841 27.6149C20.2558 27.5704 20.4357 27.539 20.6239 27.5208C20.8452 27.4977 21.0234 27.4763 21.1588 27.4565C21.2942 27.435 21.3924 27.4036 21.4535 27.3624C21.5146 27.3211 21.5451 27.26 21.5451 27.1791V27.1643C21.5451 27.0074 21.4956 26.8861 21.3965 26.8002C21.2991 26.7144 21.1605 26.6715 20.9805 26.6715C20.7907 26.6715 20.6396 26.7136 20.5274 26.7978C20.4151 26.8803 20.3408 26.9843 20.3045 27.1098L19.3288 27.0305C19.3784 26.7994 19.4758 26.5997 19.621 26.4313C19.7663 26.2612 19.9537 26.1308 20.1832 26.04C20.4143 25.9476 20.6817 25.9014 20.9855 25.9014C21.1968 25.9014 21.399 25.9261 21.5922 25.9756C21.787 26.0252 21.9595 26.1019 22.1097 26.2059C22.2616 26.3099 22.3813 26.4437 22.4688 26.6071C22.5563 26.7689 22.6 26.9629 22.6 27.189V29.7545H21.5996V29.227H21.5699C21.5088 29.3459 21.4271 29.4507 21.3247 29.5415C21.2224 29.6306 21.0994 29.7008 20.9558 29.752C20.8121 29.8015 20.6462 29.8263 20.458 29.8263ZM20.7601 29.0982C20.9153 29.0982 21.0523 29.0677 21.1712 29.0066C21.2901 28.9439 21.3833 28.8597 21.451 28.754C21.5187 28.6484 21.5525 28.5287 21.5525 28.395V27.9913C21.5195 28.0128 21.4741 28.0326 21.4164 28.0508C21.3602 28.0673 21.2967 28.083 21.2257 28.0978C21.1547 28.111 21.0837 28.1234 21.0127 28.135C20.9417 28.1449 20.8773 28.154 20.8196 28.1622C20.6958 28.1804 20.5876 28.2093 20.4952 28.2489C20.4027 28.2885 20.3309 28.3421 20.2797 28.4098C20.2286 28.4759 20.203 28.5584 20.203 28.6575C20.203 28.8011 20.255 28.9109 20.359 28.9868C20.4646 29.0611 20.5984 29.0982 20.7601 29.0982ZM26.5831 27.0355L25.6174 27.0949C25.6009 27.0124 25.5654 26.9381 25.5109 26.8721C25.4564 26.8044 25.3846 26.7507 25.2955 26.7111C25.208 26.6698 25.1031 26.6492 24.981 26.6492C24.8175 26.6492 24.6797 26.6839 24.5674 26.7532C24.4552 26.8209 24.399 26.9117 24.399 27.0256C24.399 27.1164 24.4354 27.1932 24.508 27.2559C24.5806 27.3186 24.7053 27.369 24.8819 27.4069L25.5703 27.5456C25.9401 27.6215 26.2158 27.7437 26.3974 27.9121C26.579 28.0805 26.6698 28.3017 26.6698 28.5757C26.6698 28.825 26.5963 29.0438 26.4494 29.232C26.3041 29.4202 26.1044 29.5671 25.8501 29.6727C25.5976 29.7767 25.3062 29.8287 24.976 29.8287C24.4725 29.8287 24.0713 29.7239 23.7725 29.5143C23.4754 29.3029 23.3012 29.0157 23.25 28.6525L24.2876 28.598C24.319 28.7516 24.3949 28.8688 24.5154 28.9497C24.6359 29.0289 24.7903 29.0685 24.9785 29.0685C25.1634 29.0685 25.312 29.033 25.4242 28.962C25.5381 28.8894 25.5959 28.7961 25.5976 28.6822C25.5959 28.5865 25.5555 28.5081 25.4762 28.447C25.397 28.3842 25.2748 28.3364 25.1097 28.3034L24.451 28.1721C24.0796 28.0978 23.8031 27.9691 23.6215 27.7858C23.4415 27.6026 23.3516 27.369 23.3516 27.085C23.3516 26.8407 23.4176 26.6302 23.5497 26.4536C23.6834 26.2769 23.8708 26.1407 24.1118 26.045C24.3545 25.9492 24.6384 25.9014 24.9636 25.9014C25.444 25.9014 25.8221 26.0029 26.0978 26.2059C26.3751 26.409 26.5369 26.6855 26.5831 27.0355ZM29.3572 25.9509V26.7433H27.0666V25.9509H29.3572ZM27.5866 25.0396H28.6415V28.5856C28.6415 28.6831 28.6564 28.759 28.6861 28.8135C28.7158 28.8663 28.7571 28.9034 28.8099 28.9249C28.8644 28.9464 28.9271 28.9571 28.9981 28.9571C29.0476 28.9571 29.0972 28.953 29.1467 28.9447C29.1962 28.9348 29.2342 28.9274 29.2606 28.9224L29.4265 29.7074C29.3737 29.7239 29.2994 29.7429 29.2036 29.7644C29.1079 29.7875 28.9915 29.8015 28.8545 29.8065C28.6003 29.8164 28.3774 29.7825 28.1859 29.7049C27.996 29.6273 27.8483 29.5068 27.7426 29.3434C27.637 29.18 27.585 28.9736 27.5866 28.7243V25.0396ZM2.21308 36.7545L0.76198 31.683H1.93326L2.77272 35.2068H2.81482L3.74095 31.683H4.74384L5.6675 35.2142H5.71207L6.55153 31.683H7.72281L6.27171 36.7545H5.22672L4.26097 33.4387H4.22135L3.25807 36.7545H2.21308ZM8.27688 36.7545V32.9509H9.33178V36.7545H8.27688ZM8.80681 32.4606C8.64998 32.4606 8.51543 32.4086 8.40317 32.3046C8.29256 32.1989 8.23726 32.0726 8.23726 31.9257C8.23726 31.7804 8.29256 31.6558 8.40317 31.5518C8.51543 31.4461 8.64998 31.3933 8.80681 31.3933C8.96364 31.3933 9.09736 31.4461 9.20796 31.5518C9.32022 31.6558 9.37635 31.7804 9.37635 31.9257C9.37635 32.0726 9.32022 32.1989 9.20796 32.3046C9.09736 32.4086 8.96364 32.4606 8.80681 32.4606ZM12.1999 32.9509V33.7433H9.90937V32.9509H12.1999ZM10.4294 32.0396H11.4843V35.5856C11.4843 35.6831 11.4991 35.759 11.5289 35.8135C11.5586 35.8663 11.5998 35.9034 11.6527 35.9249C11.7072 35.9464 11.7699 35.9571 11.8409 35.9571C11.8904 35.9571 11.9399 35.953 11.9895 35.9447C12.039 35.9348 12.0769 35.9274 12.1034 35.9224L12.2693 36.7074C12.2164 36.7239 12.1422 36.7429 12.0464 36.7644C11.9507 36.7875 11.8343 36.8015 11.6972 36.8065C11.443 36.8164 11.2202 36.7825 11.0287 36.7049C10.8388 36.6273 10.6911 36.5068 10.5854 36.3434C10.4797 36.18 10.4277 35.9736 10.4294 35.7243V32.0396ZM14.0237 34.5555V36.7545H12.9688V31.683H13.994V33.622H14.0386C14.1244 33.3974 14.2631 33.2216 14.4546 33.0945C14.6461 32.9657 14.8863 32.9014 15.1752 32.9014C15.4393 32.9014 15.6696 32.9591 15.8661 33.0747C16.0642 33.1886 16.2177 33.3529 16.3267 33.5675C16.4373 33.7804 16.4917 34.0355 16.4901 34.3327V36.7545H15.4352V34.5208C15.4368 34.2864 15.3774 34.104 15.2569 33.9736C15.138 33.8432 14.9713 33.778 14.7567 33.778C14.6131 33.778 14.486 33.8085 14.3753 33.8696C14.2664 33.9307 14.1805 34.0198 14.1178 34.137C14.0567 34.2526 14.0254 34.3921 14.0237 34.5555ZM18.7218 36.8164C18.4329 36.8164 18.1713 36.7421 17.9369 36.5935C17.7041 36.4433 17.5192 36.2229 17.3822 35.9323C17.2468 35.6401 17.1791 35.2819 17.1791 34.8576C17.1791 34.4218 17.2493 34.0594 17.3896 33.7705C17.5299 33.48 17.7165 33.2629 17.9492 33.1193C18.1837 32.974 18.4404 32.9014 18.7194 32.9014C18.9323 32.9014 19.1098 32.9377 19.2518 33.0103C19.3954 33.0813 19.511 33.1704 19.5985 33.2778C19.6876 33.3834 19.7553 33.4874 19.8015 33.5898H19.8337V31.683H20.8861V36.7545H19.8461V36.1453H19.8015C19.752 36.2509 19.6818 36.3558 19.591 36.4598C19.5019 36.5621 19.3855 36.6471 19.2419 36.7148C19.0999 36.7825 18.9266 36.8164 18.7218 36.8164ZM19.0561 35.9769C19.2262 35.9769 19.3698 35.9307 19.487 35.8382C19.6059 35.7441 19.6967 35.6129 19.7594 35.4445C19.8238 35.2761 19.856 35.0788 19.856 34.8527C19.856 34.6265 19.8246 34.4301 19.7619 34.2633C19.6992 34.0966 19.6084 33.9678 19.4895 33.877C19.3706 33.7862 19.2262 33.7408 19.0561 33.7408C18.8828 33.7408 18.7367 33.7879 18.6178 33.882C18.499 33.9761 18.409 34.1065 18.3479 34.2732C18.2868 34.44 18.2563 34.6331 18.2563 34.8527C18.2563 35.0739 18.2868 35.2695 18.3479 35.4395C18.4107 35.6079 18.5006 35.74 18.6178 35.8358C18.7367 35.9299 18.8828 35.9769 19.0561 35.9769ZM21.7534 36.7545V32.9509H22.7761V33.6145H22.8158C22.8851 33.3785 23.0015 33.2002 23.1649 33.0797C23.3284 32.9575 23.5166 32.8964 23.7295 32.8964C23.7823 32.8964 23.8393 32.8997 23.9004 32.9063C23.9615 32.9129 24.0151 32.922 24.0613 32.9335V33.8696C24.0118 33.8547 23.9433 33.8415 23.8558 33.83C23.7683 33.8184 23.6882 33.8126 23.6156 33.8126C23.4604 33.8126 23.3217 33.8465 23.1996 33.9142C23.0791 33.9802 22.9833 34.0726 22.9123 34.1915C22.843 34.3104 22.8083 34.4474 22.8083 34.6026V36.7545H21.7534ZM25.5824 36.8263C25.3397 36.8263 25.1235 36.7842 24.9336 36.7C24.7438 36.6141 24.5935 36.4878 24.4829 36.3211C24.374 36.1527 24.3195 35.9431 24.3195 35.6921C24.3195 35.4808 24.3583 35.3034 24.4359 35.1597C24.5135 35.0161 24.6191 34.9005 24.7528 34.813C24.8866 34.7256 25.0384 34.6595 25.2085 34.6149C25.3802 34.5704 25.5601 34.539 25.7483 34.5208C25.9695 34.4977 26.1478 34.4763 26.2832 34.4565C26.4185 34.435 26.5168 34.4036 26.5779 34.3624C26.6389 34.3211 26.6695 34.26 26.6695 34.1791V34.1643C26.6695 34.0074 26.62 33.8861 26.5209 33.8002C26.4235 33.7144 26.2848 33.6715 26.1049 33.6715C25.915 33.6715 25.764 33.7136 25.6517 33.7978C25.5395 33.8803 25.4652 33.9843 25.4289 34.1098L24.4532 34.0305C24.5027 33.7994 24.6001 33.5997 24.7454 33.4313C24.8907 33.2612 25.0781 33.1308 25.3075 33.04C25.5386 32.9476 25.8061 32.9014 26.1098 32.9014C26.3211 32.9014 26.5234 32.9261 26.7165 32.9756C26.9113 33.0252 27.0838 33.1019 27.2341 33.2059C27.3859 33.3099 27.5056 33.4437 27.5931 33.6071C27.6806 33.7689 27.7244 33.9629 27.7244 34.189V36.7545H26.724V36.227H26.6942C26.6332 36.3459 26.5514 36.4507 26.4491 36.5415C26.3467 36.6306 26.2237 36.7008 26.0801 36.752C25.9365 36.8015 25.7706 36.8263 25.5824 36.8263ZM25.8845 36.0982C26.0397 36.0982 26.1767 36.0677 26.2956 36.0066C26.4144 35.9439 26.5077 35.8597 26.5754 35.754C26.6431 35.6484 26.6769 35.5287 26.6769 35.395V34.9913C26.6439 35.0128 26.5985 35.0326 26.5407 35.0508C26.4846 35.0673 26.421 35.083 26.35 35.0978C26.2791 35.111 26.2081 35.1234 26.1371 35.135C26.0661 35.1449 26.0017 35.154 25.9439 35.1622C25.8201 35.1804 25.712 35.2093 25.6195 35.2489C25.5271 35.2885 25.4553 35.3421 25.4041 35.4098C25.3529 35.4759 25.3273 35.5584 25.3273 35.6575C25.3273 35.8011 25.3793 35.9109 25.4833 35.9868C25.589 36.0611 25.7227 36.0982 25.8845 36.0982ZM29.2931 36.7545L28.258 32.9509H29.3253L29.9146 35.5064H29.9493L30.5634 32.9509H31.6109L32.2349 35.4916H32.2671L32.8466 32.9509H33.9114L32.8788 36.7545H31.762L31.1082 34.3624H31.0612L30.4074 36.7545H29.2931ZM35.5587 36.8263C35.316 36.8263 35.0998 36.7842 34.9099 36.7C34.7201 36.6141 34.5699 36.4878 34.4592 36.3211C34.3503 36.1527 34.2958 35.9431 34.2958 35.6921C34.2958 35.4808 34.3346 35.3034 34.4122 35.1597C34.4898 35.0161 34.5954 34.9005 34.7292 34.813C34.8629 34.7256 35.0148 34.6595 35.1848 34.6149C35.3565 34.5704 35.5364 34.539 35.7246 34.5208C35.9458 34.4977 36.1241 34.4763 36.2595 34.4565C36.3949 34.435 36.4931 34.4036 36.5542 34.3624C36.6153 34.3211 36.6458 34.26 36.6458 34.1791V34.1643C36.6458 34.0074 36.5963 33.8861 36.4972 33.8002C36.3998 33.7144 36.2612 33.6715 36.0812 33.6715C35.8914 33.6715 35.7403 33.7136 35.6281 33.7978C35.5158 33.8803 35.4415 33.9843 35.4052 34.1098L34.4295 34.0305C34.4791 33.7994 34.5765 33.5997 34.7217 33.4313C34.867 33.2612 35.0544 33.1308 35.2839 33.04C35.515 32.9476 35.7824 32.9014 36.0862 32.9014C36.2975 32.9014 36.4997 32.9261 36.6929 32.9756C36.8877 33.0252 37.0602 33.1019 37.2104 33.2059C37.3623 33.3099 37.482 33.4437 37.5695 33.6071C37.657 33.7689 37.7007 33.9629 37.7007 34.189V36.7545H36.7003V36.227H36.6706C36.6095 36.3459 36.5278 36.4507 36.4254 36.5415C36.3231 36.6306 36.2001 36.7008 36.0565 36.752C35.9128 36.8015 35.7469 36.8263 35.5587 36.8263ZM35.8608 36.0982C36.016 36.0982 36.153 36.0677 36.2719 36.0066C36.3908 35.9439 36.484 35.8597 36.5517 35.754C36.6194 35.6484 36.6532 35.5287 36.6532 35.395V34.9913C36.6202 35.0128 36.5748 35.0326 36.517 35.0508C36.4609 35.0673 36.3974 35.083 36.3264 35.0978C36.2554 35.111 36.1844 35.1234 36.1134 35.135C36.0424 35.1449 35.978 35.154 35.9203 35.1622C35.7964 35.1804 35.6883 35.2093 35.5959 35.2489C35.5034 35.2885 35.4316 35.3421 35.3804 35.4098C35.3293 35.4759 35.3037 35.5584 35.3037 35.6575C35.3037 35.8011 35.3557 35.9109 35.4597 35.9868C35.5653 36.0611 35.699 36.0982 35.8608 36.0982ZM39.574 31.683V36.7545H38.5191V31.683H39.574ZM43.5837 34.0355L42.618 34.0949C42.6015 34.0124 42.566 33.9381 42.5115 33.8721C42.457 33.8044 42.3852 33.7507 42.2961 33.7111C42.2086 33.6698 42.1037 33.6492 41.9816 33.6492C41.8181 33.6492 41.6803 33.6839 41.568 33.7532C41.4558 33.8209 41.3997 33.9117 41.3997 34.0256C41.3997 34.1164 41.436 34.1932 41.5086 34.2559C41.5812 34.3186 41.7059 34.369 41.8825 34.4069L42.5709 34.5456C42.9407 34.6215 43.2164 34.7437 43.398 34.9121C43.5796 35.0805 43.6704 35.3017 43.6704 35.5757C43.6704 35.825 43.5969 36.0438 43.45 36.232C43.3047 36.4202 43.105 36.5671 42.8508 36.6727C42.5982 36.7767 42.3068 36.8287 41.9766 36.8287C41.4731 36.8287 41.072 36.7239 40.7732 36.5143C40.476 36.3029 40.3018 36.0157 40.2507 35.6525L41.2882 35.598C41.3196 35.7516 41.3955 35.8688 41.516 35.9497C41.6365 36.0289 41.7909 36.0685 41.9791 36.0685C42.164 36.0685 42.3126 36.033 42.4248 35.962C42.5387 35.8894 42.5965 35.7961 42.5982 35.6822C42.5965 35.5865 42.5561 35.5081 42.4768 35.447C42.3976 35.3842 42.2754 35.3364 42.1103 35.3034L41.4517 35.1721C41.0802 35.0978 40.8037 34.9691 40.6221 34.7858C40.4422 34.6026 40.3522 34.369 40.3522 34.085C40.3522 33.8407 40.4182 33.6302 40.5503 33.4536C40.684 33.2769 40.8714 33.1407 41.1124 33.045C41.3551 32.9492 41.639 32.9014 41.9642 32.9014C42.4446 32.9014 42.8227 33.0029 43.0984 33.2059C43.3757 33.409 43.5375 33.6855 43.5837 34.0355Z" fill="white"/>
<circle cx="85.6941" cy="9.80805" r="9.15234" stroke="white" stroke-width="0.871652"/>
<path d="M83.8329 11.2936L81.9915 13.135C81.7865 13.3399 81.5255 13.4795 81.2412 13.536C80.957 13.5925 80.6624 13.5635 80.3946 13.4526C80.1269 13.3417 79.8981 13.1539 79.737 12.913C79.576 12.672 79.49 12.3887 79.49 12.0989V11.2936L80.3319 7.08478C80.4443 6.52221 80.7482 6.01597 81.1918 5.6522C81.6355 5.28843 82.1914 5.0896 82.7651 5.08954H88.6231C89.1968 5.0896 89.7527 5.28843 90.1964 5.6522C90.64 6.01597 90.9439 6.52221 91.0563 7.08478L91.8982 11.2936V12.0983C91.8982 12.3881 91.8122 12.6714 91.6512 12.9123C91.4901 13.1533 91.2613 13.3411 90.9936 13.452C90.7258 13.5629 90.4312 13.5919 90.147 13.5354C89.8627 13.4788 89.6017 13.3393 89.3967 13.1344L87.5553 11.2936H83.8329Z" stroke="white" stroke-width="0.871652" stroke-linecap="round" stroke-linejoin="round"/>
<path d="M83.833 5.08954L84.4534 6.33036H86.9351L87.5555 5.08954" stroke="white" stroke-width="0.871652" stroke-linecap="round" stroke-linejoin="round"/>
<path d="M67.8908 29.7545H66.7418L68.4925 24.683H69.8743L71.6226 29.7545H70.4736L69.2032 25.8419H69.1636L67.8908 29.7545ZM67.819 27.761H70.533V28.598H67.819V27.761ZM73.3052 24.683V29.7545H72.233V24.683H73.3052ZM76.5374 26.8002V27.6372H74.2245V26.8002H76.5374ZM80.2072 26.1416C80.1874 25.9418 80.1024 25.7866 79.9522 25.676C79.8019 25.5654 79.5981 25.5101 79.3405 25.5101C79.1655 25.5101 79.0178 25.5349 78.8973 25.5844C78.7768 25.6323 78.6843 25.6991 78.6199 25.785C78.5572 25.8708 78.5258 25.9682 78.5258 26.0772C78.5225 26.168 78.5415 26.2472 78.5828 26.3149C78.6257 26.3826 78.6843 26.4412 78.7586 26.4907C78.8329 26.5386 78.9187 26.5807 79.0161 26.617C79.1135 26.6517 79.2175 26.6814 79.3281 26.7062L79.7838 26.8151C80.005 26.8646 80.208 26.9307 80.3929 27.0132C80.5778 27.0958 80.738 27.1973 80.8733 27.3178C81.0087 27.4383 81.1135 27.5803 81.1878 27.7437C81.2638 27.9071 81.3026 28.0945 81.3042 28.3058C81.3026 28.6162 81.2233 28.8853 81.0665 29.1131C80.9113 29.3393 80.6868 29.5151 80.3929 29.6405C80.1007 29.7644 79.7483 29.8263 79.3356 29.8263C78.9262 29.8263 78.5696 29.7635 78.2658 29.6381C77.9637 29.5126 77.7276 29.3269 77.5576 29.0809C77.3892 28.8333 77.3009 28.527 77.2926 28.1622H78.3302C78.3418 28.3322 78.3905 28.4742 78.4763 28.5881C78.5638 28.7004 78.6802 28.7854 78.8255 28.8432C78.9724 28.8993 79.1383 28.9274 79.3232 28.9274C79.5048 28.9274 79.6624 28.901 79.7962 28.8481C79.9315 28.7953 80.0364 28.7218 80.1106 28.6277C80.1849 28.5336 80.2221 28.4255 80.2221 28.3034C80.2221 28.1894 80.1882 28.0937 80.1206 28.0161C80.0545 27.9385 79.9571 27.8725 79.8284 27.818C79.7012 27.7635 79.5452 27.714 79.3603 27.6694L78.8081 27.5308C78.3806 27.4267 78.043 27.2641 77.7953 27.0429C77.5477 26.8217 77.4247 26.5237 77.4264 26.149C77.4247 25.8419 77.5064 25.5737 77.6715 25.3442C77.8382 25.1147 78.0669 24.9356 78.3574 24.8068C78.648 24.6781 78.9782 24.6137 79.348 24.6137C79.7243 24.6137 80.0529 24.6781 80.3335 24.8068C80.6158 24.9356 80.8354 25.1147 80.9922 25.3442C81.149 25.5737 81.2299 25.8395 81.2349 26.1416H80.2072ZM83.739 29.8287C83.3478 29.8287 83.011 29.7495 82.7287 29.591C82.4481 29.4309 82.2318 29.2047 82.0799 28.9125C81.928 28.6187 81.8521 28.2712 81.8521 27.87C81.8521 27.4788 81.928 27.1354 82.0799 26.8399C82.2318 26.5444 82.4456 26.3141 82.7213 26.149C82.9986 25.9839 83.3238 25.9014 83.6969 25.9014C83.9479 25.9014 84.1815 25.9418 84.3977 26.0227C84.6156 26.1019 84.8055 26.2216 84.9673 26.3818C85.1307 26.5419 85.2578 26.7433 85.3486 26.986C85.4394 27.227 85.4848 27.5093 85.4848 27.8329V28.1226H82.2731V27.4688H84.4918C84.4918 27.317 84.4588 27.1824 84.3928 27.0652C84.3267 26.948 84.2351 26.8564 84.1179 26.7903C84.0023 26.7227 83.8678 26.6888 83.7143 26.6888C83.5541 26.6888 83.4122 26.726 83.2883 26.8002C83.1662 26.8729 83.0704 26.9711 83.0011 27.0949C82.9318 27.2171 82.8963 27.3533 82.8946 27.5035V28.1251C82.8946 28.3133 82.9293 28.4759 82.9986 28.6129C83.0696 28.7499 83.1695 28.8556 83.2982 28.9299C83.427 29.0041 83.5797 29.0413 83.7564 29.0413C83.8736 29.0413 83.9809 29.0248 84.0783 28.9918C84.1757 28.9587 84.259 28.9092 84.3284 28.8432C84.3977 28.7771 84.4505 28.6963 84.4869 28.6005L85.4625 28.6649C85.413 28.8993 85.3115 29.104 85.1579 29.279C85.0061 29.4523 84.8096 29.5877 84.5686 29.6851C84.3292 29.7809 84.0527 29.8287 83.739 29.8287ZM87.8918 29.8287C87.5021 29.8287 87.167 29.7462 86.8864 29.5811C86.6074 29.4144 86.3928 29.1833 86.2425 28.8878C86.094 28.5923 86.0197 28.2522 86.0197 27.8675C86.0197 27.4779 86.0948 27.1362 86.245 26.8423C86.3969 26.5468 86.6123 26.3165 86.8913 26.1515C87.1703 25.9847 87.5021 25.9014 87.8868 25.9014C88.2186 25.9014 88.5092 25.9616 88.7584 26.0821C89.0077 26.2026 89.205 26.3719 89.3503 26.5898C89.4956 26.8077 89.5756 27.0636 89.5905 27.3574H88.595C88.567 27.1676 88.4927 27.0149 88.3721 26.8993C88.2533 26.7821 88.0973 26.7235 87.9041 26.7235C87.7407 26.7235 87.5979 26.7681 87.4757 26.8572C87.3552 26.9447 87.2611 27.0726 87.1934 27.241C87.1258 27.4094 87.0919 27.6133 87.0919 27.8527C87.0919 28.0953 87.1249 28.3017 87.191 28.4717C87.2586 28.6418 87.3536 28.7714 87.4757 28.8605C87.5979 28.9497 87.7407 28.9942 87.9041 28.9942C88.0246 28.9942 88.1328 28.9695 88.2285 28.9199C88.3259 28.8704 88.406 28.7986 88.4687 28.7045C88.5331 28.6088 88.5752 28.494 88.595 28.3603H89.5905C89.574 28.6509 89.4947 28.9067 89.3528 29.128C89.2124 29.3475 89.0185 29.5192 88.7708 29.643C88.5232 29.7668 88.2302 29.8287 87.8918 29.8287ZM92.705 28.135V25.9509H93.7599V29.7545H92.7471V29.0636H92.7075C92.6217 29.2864 92.4789 29.4656 92.2791 29.6009C92.081 29.7363 91.8392 29.804 91.5536 29.804C91.2993 29.804 91.0756 29.7462 90.8825 29.6306C90.6893 29.5151 90.5383 29.3508 90.4293 29.1379C90.322 28.9249 90.2675 28.6698 90.2659 28.3727V25.9509H91.3208V28.1845C91.3224 28.409 91.3827 28.5865 91.5016 28.7169C91.6204 28.8473 91.7797 28.9125 91.9795 28.9125C92.1066 28.9125 92.2255 28.8836 92.3361 28.8258C92.4467 28.7664 92.5358 28.6789 92.6035 28.5634C92.6728 28.4478 92.7067 28.305 92.705 28.135ZM94.6037 29.7545V25.9509H95.6264V26.6145H95.666C95.7354 26.3785 95.8518 26.2002 96.0152 26.0797C96.1786 25.9575 96.3668 25.8964 96.5798 25.8964C96.6326 25.8964 96.6896 25.8997 96.7507 25.9063C96.8117 25.9129 96.8654 25.922 96.9116 25.9335V26.8696C96.8621 26.8547 96.7936 26.8415 96.7061 26.83C96.6186 26.8184 96.5385 26.8126 96.4659 26.8126C96.3107 26.8126 96.172 26.8465 96.0499 26.9142C95.9294 26.9802 95.8336 27.0726 95.7626 27.1915C95.6933 27.3104 95.6586 27.4474 95.6586 27.6026V29.7545H94.6037ZM99.0134 29.8287C98.6221 29.8287 98.2853 29.7495 98.003 29.591C97.7224 29.4309 97.5061 29.2047 97.3542 28.9125C97.2024 28.6187 97.1264 28.2712 97.1264 27.87C97.1264 27.4788 97.2024 27.1354 97.3542 26.8399C97.5061 26.5444 97.7199 26.3141 97.9956 26.149C98.2729 25.9839 98.5982 25.9014 98.9713 25.9014C99.2222 25.9014 99.4558 25.9418 99.672 26.0227C99.89 26.1019 100.08 26.2216 100.242 26.3818C100.405 26.5419 100.532 26.7433 100.623 26.986C100.714 27.227 100.759 27.5093 100.759 27.8329V28.1226H97.5474V27.4688H99.7661C99.7661 27.317 99.7331 27.1824 99.6671 27.0652C99.6011 26.948 99.5094 26.8564 99.3922 26.7903C99.2767 26.7227 99.1421 26.6888 98.9886 26.6888C98.8285 26.6888 98.6865 26.726 98.5627 26.8002C98.4405 26.8729 98.3448 26.9711 98.2754 27.0949C98.2061 27.2171 98.1706 27.3533 98.1689 27.5035V28.1251C98.1689 28.3133 98.2036 28.4759 98.2729 28.6129C98.3439 28.7499 98.4438 28.8556 98.5726 28.9299C98.7013 29.0041 98.8541 29.0413 99.0307 29.0413C99.1479 29.0413 99.2552 29.0248 99.3526 28.9918C99.45 28.9587 99.5334 28.9092 99.6027 28.8432C99.672 28.7771 99.7249 28.6963 99.7612 28.6005L100.737 28.6649C100.687 28.8993 100.586 29.104 100.432 29.279C100.28 29.4523 100.084 29.5877 99.8429 29.6851C99.6035 29.7809 99.327 29.8287 99.0134 29.8287ZM102.849 29.8164C102.56 29.8164 102.299 29.7421 102.064 29.5935C101.831 29.4433 101.646 29.2229 101.509 28.9323C101.374 28.6401 101.306 28.2819 101.306 27.8576C101.306 27.4218 101.377 27.0594 101.517 26.7705C101.657 26.48 101.844 26.2629 102.077 26.1193C102.311 25.974 102.568 25.9014 102.847 25.9014C103.06 25.9014 103.237 25.9377 103.379 26.0103C103.523 26.0813 103.638 26.1704 103.726 26.2778C103.815 26.3834 103.883 26.4874 103.929 26.5898H103.961V24.683H105.013V29.7545H103.973V29.1453H103.929C103.879 29.2509 103.809 29.3558 103.718 29.4598C103.629 29.5621 103.513 29.6471 103.369 29.7148C103.227 29.7825 103.054 29.8164 102.849 29.8164ZM103.183 28.9769C103.353 28.9769 103.497 28.9307 103.614 28.8382C103.733 28.7441 103.824 28.6129 103.887 28.4445C103.951 28.2761 103.983 28.0788 103.983 27.8527C103.983 27.6265 103.952 27.4301 103.889 27.2633C103.826 27.0966 103.736 26.9678 103.617 26.877C103.498 26.7862 103.353 26.7408 103.183 26.7408C103.01 26.7408 102.864 26.7879 102.745 26.882C102.626 26.9761 102.536 27.1065 102.475 27.2732C102.414 27.44 102.384 27.6331 102.384 27.8527C102.384 28.0739 102.414 28.2695 102.475 28.4395C102.538 28.6079 102.628 28.74 102.745 28.8358C102.864 28.9299 103.01 28.9769 103.183 28.9769ZM72.7288 33.3223C72.6942 33.2018 72.6455 33.0953 72.5827 33.0029C72.52 32.9088 72.4432 32.8295 72.3525 32.7652C72.2633 32.6991 72.161 32.6488 72.0454 32.6141C71.9315 32.5794 71.8052 32.5621 71.6665 32.5621C71.4073 32.5621 71.1795 32.6265 70.9831 32.7553C70.7883 32.884 70.6364 33.0714 70.5274 33.3174C70.4185 33.5617 70.364 33.8605 70.364 34.2138C70.364 34.5671 70.4176 34.8675 70.525 35.1152C70.6323 35.3628 70.7841 35.5518 70.9806 35.6822C71.177 35.811 71.409 35.8754 71.6764 35.8754C71.9191 35.8754 72.1263 35.8325 72.298 35.7466C72.4713 35.6591 72.6034 35.5361 72.6942 35.3776C72.7866 35.2192 72.8328 35.0318 72.8328 34.8155L73.0508 34.8477H71.7433V34.0404H73.8655V34.6793C73.8655 35.1251 73.7714 35.5081 73.5832 35.8283C73.395 36.1469 73.1358 36.3929 72.8056 36.5663C72.4754 36.7379 72.0974 36.8238 71.6715 36.8238C71.196 36.8238 70.7784 36.719 70.4185 36.5093C70.0586 36.298 69.7779 35.9984 69.5765 35.6104C69.3768 35.2208 69.2769 34.7586 69.2769 34.2237C69.2769 33.8126 69.3363 33.4461 69.4552 33.1242C69.5757 32.8007 69.7441 32.5266 69.9604 32.3021C70.1766 32.0776 70.4284 31.9067 70.7156 31.7895C71.0029 31.6723 71.3141 31.6137 71.6492 31.6137C71.9364 31.6137 72.2039 31.6558 72.4515 31.74C72.6991 31.8225 72.9187 31.9397 73.1102 32.0916C73.3033 32.2435 73.461 32.4243 73.5832 32.6339C73.7053 32.8419 73.7837 33.0714 73.8184 33.3223H72.7288ZM75.7357 36.8263C75.493 36.8263 75.2767 36.7842 75.0869 36.7C74.897 36.6141 74.7468 36.4878 74.6362 36.3211C74.5272 36.1527 74.4728 35.9431 74.4728 35.6921C74.4728 35.4808 74.5116 35.3034 74.5892 35.1597C74.6667 35.0161 74.7724 34.9005 74.9061 34.813C75.0398 34.7256 75.1917 34.6595 75.3618 34.6149C75.5334 34.5704 75.7134 34.539 75.9016 34.5208C76.1228 34.4977 76.3011 34.4763 76.4365 34.4565C76.5718 34.435 76.6701 34.4036 76.7311 34.3624C76.7922 34.3211 76.8228 34.26 76.8228 34.1791V34.1643C76.8228 34.0074 76.7732 33.8861 76.6742 33.8002C76.5768 33.7144 76.4381 33.6715 76.2582 33.6715C76.0683 33.6715 75.9173 33.7136 75.805 33.7978C75.6928 33.8803 75.6185 33.9843 75.5821 34.1098L74.6065 34.0305C74.656 33.7994 74.7534 33.5997 74.8987 33.4313C75.044 33.2612 75.2313 33.1308 75.4608 33.04C75.6919 32.9476 75.9594 32.9014 76.2631 32.9014C76.4744 32.9014 76.6767 32.9261 76.8698 32.9756C77.0646 33.0252 77.2371 33.1019 77.3874 33.2059C77.5392 33.3099 77.6589 33.4437 77.7464 33.6071C77.8339 33.7689 77.8777 33.9629 77.8777 34.189V36.7545H76.8772V36.227H76.8475C76.7864 36.3459 76.7047 36.4507 76.6024 36.5415C76.5 36.6306 76.377 36.7008 76.2334 36.752C76.0898 36.8015 75.9239 36.8263 75.7357 36.8263ZM76.0378 36.0982C76.193 36.0982 76.33 36.0677 76.4488 36.0066C76.5677 35.9439 76.661 35.8597 76.7287 35.754C76.7963 35.6484 76.8302 35.5287 76.8302 35.395V34.9913C76.7972 35.0128 76.7518 35.0326 76.694 35.0508C76.6379 35.0673 76.5743 35.083 76.5033 35.0978C76.4323 35.111 76.3613 35.1234 76.2904 35.135C76.2194 35.1449 76.155 35.154 76.0972 35.1622C75.9734 35.1804 75.8653 35.2093 75.7728 35.2489C75.6804 35.2885 75.6086 35.3421 75.5574 35.4098C75.5062 35.4759 75.4806 35.5584 75.4806 35.6575C75.4806 35.8011 75.5326 35.9109 75.6366 35.9868C75.7423 36.0611 75.876 36.0982 76.0378 36.0982ZM78.6961 36.7545V32.9509H79.7014V33.622H79.746C79.8253 33.3991 79.9573 33.2233 80.1422 33.0945C80.3271 32.9657 80.5483 32.9014 80.8059 32.9014C81.0667 32.9014 81.2887 32.9666 81.472 33.097C81.6552 33.2258 81.7774 33.4007 81.8385 33.622H81.8781C81.9557 33.404 82.096 33.2299 82.2991 33.0995C82.5038 32.9674 82.7456 32.9014 83.0246 32.9014C83.3795 32.9014 83.6676 33.0144 83.8888 33.2406C84.1117 33.4651 84.2231 33.7837 84.2231 34.1965V36.7545H83.1707V34.4045C83.1707 34.1932 83.1146 34.0347 83.0023 33.929C82.8901 33.8234 82.7497 33.7705 82.5814 33.7705C82.3899 33.7705 82.2405 33.8316 82.1332 33.9538C82.0258 34.0743 81.9722 34.2336 81.9722 34.4317V36.7545H80.9495V34.3822C80.9495 34.1956 80.8958 34.0471 80.7885 33.9364C80.6829 33.8258 80.5434 33.7705 80.37 33.7705C80.2528 33.7705 80.1472 33.8002 80.0531 33.8597C79.9606 33.9175 79.8872 33.9992 79.8327 34.1048C79.7782 34.2088 79.751 34.331 79.751 34.4713V36.7545H78.6961ZM86.7898 36.8287C86.3986 36.8287 86.0618 36.7495 85.7795 36.591C85.4988 36.4309 85.2826 36.2047 85.1307 35.9125C84.9788 35.6187 84.9029 35.2712 84.9029 34.87C84.9029 34.4788 84.9788 34.1354 85.1307 33.8399C85.2826 33.5444 85.4964 33.3141 85.7721 33.149C86.0494 32.9839 86.3746 32.9014 86.7477 32.9014C86.9986 32.9014 87.2322 32.9418 87.4485 33.0227C87.6664 33.1019 87.8563 33.2216 88.018 33.3818C88.1815 33.5419 88.3086 33.7433 88.3994 33.986C88.4902 34.227 88.5356 34.5093 88.5356 34.8329V35.1226H85.3238V34.4688H87.5426C87.5426 34.317 87.5096 34.1824 87.4435 34.0652C87.3775 33.948 87.2859 33.8564 87.1687 33.7903C87.0531 33.7227 86.9186 33.6888 86.765 33.6888C86.6049 33.6888 86.4629 33.726 86.3391 33.8002C86.217 33.8729 86.1212 33.9711 86.0519 34.0949C85.9825 34.2171 85.947 34.3533 85.9454 34.5035V35.1251C85.9454 35.3133 85.9801 35.4759 86.0494 35.6129C86.1204 35.7499 86.2203 35.8556 86.349 35.9299C86.4778 36.0041 86.6305 36.0413 86.8071 36.0413C86.9243 36.0413 87.0317 36.0248 87.1291 35.9918C87.2265 35.9587 87.3098 35.9092 87.3792 35.8432C87.4485 35.7771 87.5013 35.6963 87.5376 35.6005L88.5133 35.6649C88.4638 35.8993 88.3622 36.104 88.2087 36.279C88.0568 36.4523 87.8604 36.5877 87.6194 36.6851C87.38 36.7809 87.1035 36.8287 86.7898 36.8287ZM89.224 38.1808V32.9509H90.264V33.5898H90.3111C90.3573 33.4874 90.4242 33.3834 90.5117 33.2778C90.6008 33.1704 90.7164 33.0813 90.8583 33.0103C91.002 32.9377 91.1803 32.9014 91.3932 32.9014C91.6706 32.9014 91.9264 32.974 92.1609 33.1193C92.3953 33.2629 92.5827 33.48 92.723 33.7705C92.8633 34.0594 92.9335 34.4218 92.9335 34.8576C92.9335 35.2819 92.865 35.6401 92.7279 35.9323C92.5926 36.2229 92.4077 36.4433 92.1732 36.5935C91.9405 36.7421 91.6796 36.8164 91.3907 36.8164C91.186 36.8164 91.0119 36.7825 90.8682 36.7148C90.7263 36.6471 90.6099 36.5621 90.5191 36.4598C90.4283 36.3558 90.359 36.2509 90.3111 36.1453H90.2789V38.1808H89.224ZM90.2566 34.8527C90.2566 35.0788 90.288 35.2761 90.3507 35.4445C90.4134 35.6129 90.5042 35.7441 90.6231 35.8382C90.742 35.9307 90.8864 35.9769 91.0564 35.9769C91.2281 35.9769 91.3734 35.9299 91.4923 35.8358C91.6111 35.74 91.7011 35.6079 91.7622 35.4395C91.8249 35.2695 91.8563 35.0739 91.8563 34.8527C91.8563 34.6331 91.8257 34.44 91.7647 34.2732C91.7036 34.1065 91.6136 33.9761 91.4947 33.882C91.3759 33.7879 91.2298 33.7408 91.0564 33.7408C90.8847 33.7408 90.7395 33.7862 90.6206 33.877C90.5034 33.9678 90.4134 34.0966 90.3507 34.2633C90.288 34.4301 90.2566 34.6265 90.2566 34.8527ZM94.6916 31.683V36.7545H93.6367V31.683H94.6916ZM96.6213 36.8263C96.3786 36.8263 96.1623 36.7842 95.9725 36.7C95.7826 36.6141 95.6324 36.4878 95.5218 36.3211C95.4128 36.1527 95.3584 35.9431 95.3584 35.6921C95.3584 35.4808 95.3972 35.3034 95.4747 35.1597C95.5523 35.0161 95.658 34.9005 95.7917 34.813C95.9254 34.7256 96.0773 34.6595 96.2473 34.6149C96.419 34.5704 96.599 34.539 96.7872 34.5208C97.0084 34.4977 97.1867 34.4763 97.3221 34.4565C97.4574 34.435 97.5557 34.4036 97.6167 34.3624C97.6778 34.3211 97.7084 34.26 97.7084 34.1791V34.1643C97.7084 34.0074 97.6588 33.8861 97.5598 33.8002C97.4624 33.7144 97.3237 33.6715 97.1438 33.6715C96.9539 33.6715 96.8029 33.7136 96.6906 33.7978C96.5783 33.8803 96.5041 33.9843 96.4677 34.1098L95.4921 34.0305C95.5416 33.7994 95.639 33.5997 95.7843 33.4313C95.9296 33.2612 96.1169 33.1308 96.3464 33.04C96.5775 32.9476 96.845 32.9014 97.1487 32.9014C97.36 32.9014 97.5623 32.9261 97.7554 32.9756C97.9502 33.0252 98.1227 33.1019 98.273 33.2059C98.4248 33.3099 98.5445 33.4437 98.632 33.6071C98.7195 33.7689 98.7633 33.9629 98.7633 34.189V36.7545H97.7628V36.227H97.7331C97.672 36.3459 97.5903 36.4507 97.488 36.5415C97.3856 36.6306 97.2626 36.7008 97.119 36.752C96.9754 36.8015 96.8095 36.8263 96.6213 36.8263ZM96.9234 36.0982C97.0786 36.0982 97.2156 36.0677 97.3344 36.0066C97.4533 35.9439 97.5466 35.8597 97.6143 35.754C97.6819 35.6484 97.7158 35.5287 97.7158 35.395V34.9913C97.6828 35.0128 97.6374 35.0326 97.5796 35.0508C97.5235 35.0673 97.4599 35.083 97.3889 35.0978C97.3179 35.111 97.2469 35.1234 97.176 35.135C97.105 35.1449 97.0406 35.154 96.9828 35.1622C96.859 35.1804 96.7509 35.2093 96.6584 35.2489C96.566 35.2885 96.4942 35.3421 96.443 35.4098C96.3918 35.4759 96.3662 35.5584 96.3662 35.6575C96.3662 35.8011 96.4182 35.9109 96.5222 35.9868C96.6279 36.0611 96.7616 36.0982 96.9234 36.0982ZM100.097 38.1808C99.963 38.1808 99.8375 38.1701 99.7203 38.1486C99.6048 38.1288 99.509 38.1032 99.4331 38.0718L99.6708 37.2844C99.7946 37.3223 99.9061 37.343 100.005 37.3463C100.106 37.3496 100.192 37.3265 100.265 37.277C100.339 37.2274 100.4 37.1432 100.446 37.0244L100.508 36.8634L99.1434 32.9509H100.253L101.04 35.7441H101.08L101.875 32.9509H102.992L101.513 37.1655C101.442 37.3702 101.346 37.5485 101.223 37.7004C101.103 37.8539 100.95 37.972 100.765 38.0545C100.58 38.1387 100.358 38.1808 100.097 38.1808Z" fill="white"/>
<circle cx="158.041" cy="9.80805" r="9.15234" stroke="white" stroke-width="0.871652"/>
<path d="M156.049 10.6717C155.881 10.6717 155.718 10.7216 155.578 10.8152C155.439 10.9087 155.331 11.0416 155.267 11.1971C155.203 11.3527 155.186 11.5238 155.218 11.6889C155.251 11.854 155.332 12.0057 155.45 12.1247C155.569 12.2437 155.719 12.3248 155.884 12.3576C156.048 12.3905 156.218 12.3736 156.373 12.3092C156.527 12.2448 156.66 12.1357 156.753 11.9957C156.846 11.8557 156.895 11.6912 156.895 11.5228C156.895 11.2971 156.806 11.0806 156.647 10.921C156.489 10.7614 156.273 10.6717 156.049 10.6717ZM158.29 6.2713V4.08667C158.428 4.02879 158.542 3.92457 158.613 3.79174C158.683 3.65891 158.705 3.50568 158.676 3.35811C158.647 3.21055 158.567 3.07776 158.452 2.98236C158.336 2.88695 158.191 2.83481 158.041 2.83481C157.892 2.83481 157.746 2.88695 157.631 2.98236C157.515 3.07776 157.436 3.21055 157.406 3.35811C157.377 3.50568 157.399 3.65891 157.47 3.79174C157.54 3.92457 157.654 4.02879 157.792 4.08667V6.2713C156.428 6.33667 155.144 6.93575 154.213 7.94053C153.283 8.94531 152.78 10.2761 152.813 11.6485C152.845 13.0209 153.41 14.3261 154.387 15.2852C155.364 16.2443 156.676 16.7812 158.041 16.7812C159.407 16.7812 160.718 16.2443 161.695 15.2852C162.672 14.3261 163.237 13.0209 163.27 11.6485C163.302 10.2761 162.799 8.94531 161.869 7.94053C160.939 6.93575 159.654 6.33667 158.29 6.2713ZM162.474 11.5232C162.474 13.0167 160.489 14.2273 158.041 14.2273C155.593 14.2273 153.608 13.0167 153.608 11.5232C153.608 10.0298 155.593 8.81912 158.041 8.81912C160.489 8.81912 162.474 10.0298 162.474 11.5232ZM160.034 12.3744C160.201 12.3744 160.365 12.3244 160.504 12.2309C160.643 12.1374 160.752 12.0045 160.816 11.8489C160.88 11.6934 160.897 11.5223 160.864 11.3572C160.831 11.1921 160.751 11.0404 160.632 10.9214C160.514 10.8024 160.363 10.7213 160.199 10.6885C160.034 10.6556 159.864 10.6725 159.71 10.7369C159.555 10.8013 159.423 10.9104 159.33 11.0504C159.237 11.1903 159.187 11.3549 159.187 11.5232C159.187 11.749 159.276 11.9654 159.435 12.125C159.594 12.2847 159.809 12.3744 160.034 12.3744Z" fill="white"/>
<path d="M151.068 3.27066L164.579 16.7813" stroke="white" stroke-width="0.871652"/>
<path d="M131.946 29.7545V24.683H133.977C134.35 24.683 134.661 24.7383 134.911 24.8489C135.16 24.9595 135.347 25.1131 135.473 25.3095C135.598 25.5043 135.661 25.7288 135.661 25.9831C135.661 26.1812 135.621 26.3553 135.542 26.5056C135.463 26.6541 135.354 26.7763 135.215 26.8721C135.078 26.9662 134.921 27.033 134.745 27.0726V27.1222C134.938 27.1304 135.119 27.1849 135.287 27.2856C135.457 27.3863 135.595 27.5275 135.7 27.709C135.806 27.889 135.859 28.1036 135.859 28.3529C135.859 28.622 135.792 28.8622 135.658 29.0735C135.526 29.2831 135.331 29.449 135.071 29.5712C134.812 29.6934 134.493 29.7545 134.113 29.7545H131.946ZM133.019 28.8779H133.893C134.192 28.8779 134.409 28.8209 134.546 28.707C134.684 28.5914 134.752 28.4379 134.752 28.2464C134.752 28.1061 134.718 27.9823 134.651 27.875C134.583 27.7677 134.486 27.6835 134.361 27.6224C134.237 27.5613 134.089 27.5308 133.918 27.5308H133.019V28.8779ZM133.019 26.8052H133.814C133.96 26.8052 134.091 26.7796 134.205 26.7284C134.32 26.6756 134.411 26.6013 134.477 26.5056C134.545 26.4098 134.579 26.2951 134.579 26.1614C134.579 25.9781 134.513 25.8304 134.383 25.7181C134.254 25.6059 134.071 25.5497 133.833 25.5497H133.019V26.8052ZM138.255 29.8287C137.871 29.8287 137.538 29.747 137.257 29.5836C136.978 29.4185 136.763 29.189 136.611 28.8952C136.459 28.5997 136.383 28.2571 136.383 27.8675C136.383 27.4746 136.459 27.1312 136.611 26.8374C136.763 26.5419 136.978 26.3124 137.257 26.149C137.538 25.9839 137.871 25.9014 138.255 25.9014C138.64 25.9014 138.972 25.9839 139.251 26.149C139.531 26.3124 139.748 26.5419 139.9 26.8374C140.051 27.1312 140.127 27.4746 140.127 27.8675C140.127 28.2571 140.051 28.5997 139.9 28.8952C139.748 29.189 139.531 29.4185 139.251 29.5836C138.972 29.747 138.64 29.8287 138.255 29.8287ZM138.26 29.0116C138.435 29.0116 138.581 28.962 138.699 28.863C138.816 28.7623 138.904 28.6253 138.964 28.4519C139.025 28.2786 139.055 28.0813 139.055 27.8601C139.055 27.6389 139.025 27.4416 138.964 27.2683C138.904 27.0949 138.816 26.9579 138.699 26.8572C138.581 26.7565 138.435 26.7062 138.26 26.7062C138.084 26.7062 137.935 26.7565 137.815 26.8572C137.696 26.9579 137.606 27.0949 137.545 27.2683C137.485 27.4416 137.456 27.6389 137.456 27.8601C137.456 28.0813 137.485 28.2786 137.545 28.4519C137.606 28.6253 137.696 28.7623 137.815 28.863C137.935 28.962 138.084 29.0116 138.26 29.0116ZM142.836 25.9509V26.7433H140.546V25.9509H142.836ZM141.066 25.0396H142.121V28.5856C142.121 28.6831 142.136 28.759 142.165 28.8135C142.195 28.8663 142.236 28.9034 142.289 28.9249C142.344 28.9464 142.406 28.9571 142.477 28.9571C142.527 28.9571 142.576 28.953 142.626 28.9447C142.676 28.9348 142.713 28.9274 142.74 28.9224L142.906 29.7074C142.853 29.7239 142.779 29.7429 142.683 29.7644C142.587 29.7875 142.471 29.8015 142.334 29.8065C142.08 29.8164 141.857 29.7825 141.665 29.7049C141.475 29.6273 141.328 29.5068 141.222 29.3434C141.116 29.18 141.064 28.9736 141.066 28.7243V25.0396ZM146.641 27.0355L145.675 27.0949C145.658 27.0124 145.623 26.9381 145.568 26.8721C145.514 26.8044 145.442 26.7507 145.353 26.7111C145.266 26.6698 145.161 26.6492 145.039 26.6492C144.875 26.6492 144.737 26.6839 144.625 26.7532C144.513 26.8209 144.457 26.9117 144.457 27.0256C144.457 27.1164 144.493 27.1932 144.566 27.2559C144.638 27.3186 144.763 27.369 144.939 27.4069L145.628 27.5456C145.998 27.6215 146.273 27.7437 146.455 27.9121C146.637 28.0805 146.727 28.3017 146.727 28.5757C146.727 28.825 146.654 29.0438 146.507 29.232C146.362 29.4202 146.162 29.5671 145.908 29.6727C145.655 29.7767 145.364 29.8287 145.034 29.8287C144.53 29.8287 144.129 29.7239 143.83 29.5143C143.533 29.3029 143.359 29.0157 143.308 28.6525L144.345 28.598C144.377 28.7516 144.452 28.8688 144.573 28.9497C144.693 29.0289 144.848 29.0685 145.036 29.0685C145.221 29.0685 145.37 29.033 145.482 28.962C145.596 28.8894 145.653 28.7961 145.655 28.6822C145.653 28.5865 145.613 28.5081 145.534 28.447C145.455 28.3842 145.332 28.3364 145.167 28.3034L144.509 28.1721C144.137 28.0978 143.861 27.9691 143.679 27.7858C143.499 27.6026 143.409 27.369 143.409 27.085C143.409 26.8407 143.475 26.6302 143.607 26.4536C143.741 26.2769 143.928 26.1407 144.169 26.045C144.412 25.9492 144.696 25.9014 145.021 25.9014C145.502 25.9014 145.88 26.0029 146.155 26.2059C146.433 26.409 146.594 26.6855 146.641 27.0355ZM149.025 29.7545V24.683H151.026C151.411 24.683 151.739 24.7565 152.009 24.9034C152.28 25.0487 152.486 25.2509 152.628 25.5101C152.772 25.7676 152.844 26.0648 152.844 26.4016C152.844 26.7383 152.771 27.0355 152.626 27.293C152.481 27.5506 152.27 27.7511 151.994 27.8948C151.72 28.0384 151.389 28.1102 150.999 28.1102H149.724V27.2509H150.826C151.032 27.2509 151.202 27.2154 151.336 27.1445C151.471 27.0718 151.572 26.9719 151.638 26.8448C151.705 26.7161 151.739 26.5683 151.739 26.4016C151.739 26.2332 151.705 26.0863 151.638 25.9608C151.572 25.8337 151.471 25.7354 151.336 25.6661C151.2 25.5951 151.029 25.5596 150.821 25.5596H150.098V29.7545H149.025ZM153.52 29.7545V25.9509H154.543V26.6145H154.583C154.652 26.3785 154.768 26.2002 154.932 26.0797C155.095 25.9575 155.284 25.8964 155.496 25.8964C155.549 25.8964 155.606 25.8997 155.667 25.9063C155.728 25.9129 155.782 25.922 155.828 25.9335V26.8696C155.779 26.8547 155.71 26.8415 155.623 26.83C155.535 26.8184 155.455 26.8126 155.383 26.8126C155.227 26.8126 155.089 26.8465 154.967 26.9142C154.846 26.9802 154.75 27.0726 154.679 27.1915C154.61 27.3104 154.575 27.4474 154.575 27.6026V29.7545H153.52ZM157.93 29.8287C157.539 29.8287 157.202 29.7495 156.92 29.591C156.639 29.4309 156.423 29.2047 156.271 28.9125C156.119 28.6187 156.043 28.2712 156.043 27.87C156.043 27.4788 156.119 27.1354 156.271 26.8399C156.423 26.5444 156.637 26.3141 156.912 26.149C157.19 25.9839 157.515 25.9014 157.888 25.9014C158.139 25.9014 158.372 25.9418 158.589 26.0227C158.807 26.1019 158.996 26.2216 159.158 26.3818C159.322 26.5419 159.449 26.7433 159.54 26.986C159.63 27.227 159.676 27.5093 159.676 27.8329V28.1226H156.464V27.4688H158.683C158.683 27.317 158.65 27.1824 158.584 27.0652C158.518 26.948 158.426 26.8564 158.309 26.7903C158.193 26.7227 158.059 26.6888 157.905 26.6888C157.745 26.6888 157.603 26.726 157.479 26.8002C157.357 26.8729 157.261 26.9711 157.192 27.0949C157.123 27.2171 157.087 27.3533 157.086 27.5035V28.1251C157.086 28.3133 157.12 28.4759 157.19 28.6129C157.261 28.7499 157.361 28.8556 157.489 28.9299C157.618 29.0041 157.771 29.0413 157.947 29.0413C158.065 29.0413 158.172 29.0248 158.269 28.9918C158.367 28.9587 158.45 28.9092 158.519 28.8432C158.589 28.7771 158.642 28.6963 158.678 28.6005L159.654 28.6649C159.604 28.8993 159.502 29.104 159.349 29.279C159.197 29.4523 159.001 29.5877 158.76 29.6851C158.52 29.7809 158.244 29.8287 157.93 29.8287ZM163.808 25.9509L162.478 29.7545H161.29L159.96 25.9509H161.074L161.864 28.6723H161.904L162.691 25.9509H163.808ZM165.959 29.8287C165.568 29.8287 165.231 29.7495 164.948 29.591C164.668 29.4309 164.452 29.2047 164.3 28.9125C164.148 28.6187 164.072 28.2712 164.072 27.87C164.072 27.4788 164.148 27.1354 164.3 26.8399C164.452 26.5444 164.665 26.3141 164.941 26.149C165.218 25.9839 165.544 25.9014 165.917 25.9014C166.168 25.9014 166.401 25.9418 166.617 26.0227C166.835 26.1019 167.025 26.2216 167.187 26.3818C167.35 26.5419 167.478 26.7433 167.568 26.986C167.659 27.227 167.705 27.5093 167.705 27.8329V28.1226H164.493V27.4688H166.712C166.712 27.317 166.679 27.1824 166.613 27.0652C166.546 26.948 166.455 26.8564 166.338 26.7903C166.222 26.7227 166.088 26.6888 165.934 26.6888C165.774 26.6888 165.632 26.726 165.508 26.8002C165.386 26.8729 165.29 26.9711 165.221 27.0949C165.152 27.2171 165.116 27.3533 165.114 27.5035V28.1251C165.114 28.3133 165.149 28.4759 165.218 28.6129C165.289 28.7499 165.389 28.8556 165.518 28.9299C165.647 29.0041 165.799 29.0413 165.976 29.0413C166.093 29.0413 166.201 29.0248 166.298 28.9918C166.395 28.9587 166.479 28.9092 166.548 28.8432C166.617 28.7771 166.67 28.6963 166.707 28.6005L167.682 28.6649C167.633 28.8993 167.531 29.104 167.378 29.279C167.226 29.4523 167.029 29.5877 166.788 29.6851C166.549 29.7809 166.272 29.8287 165.959 29.8287ZM169.448 27.5555V29.7545H168.393V25.9509H169.398V26.622H169.443C169.527 26.4007 169.668 26.2258 169.866 26.097C170.064 25.9666 170.305 25.9014 170.587 25.9014C170.851 25.9014 171.081 25.9591 171.278 26.0747C171.474 26.1903 171.627 26.3553 171.736 26.57C171.845 26.7829 171.899 27.0371 171.899 27.3327V29.7545H170.844V27.5208C170.846 27.2881 170.787 27.1065 170.666 26.9761C170.546 26.844 170.38 26.778 170.168 26.778C170.026 26.778 169.901 26.8085 169.792 26.8696C169.685 26.9307 169.601 27.0198 169.539 27.137C169.48 27.2526 169.45 27.3921 169.448 27.5555ZM174.754 25.9509V26.7433H172.463V25.9509H174.754ZM172.983 25.0396H174.038V28.5856C174.038 28.6831 174.053 28.759 174.083 28.8135C174.113 28.8663 174.154 28.9034 174.207 28.9249C174.261 28.9464 174.324 28.9571 174.395 28.9571C174.444 28.9571 174.494 28.953 174.543 28.9447C174.593 28.9348 174.631 28.9274 174.657 28.9224L174.823 29.7074C174.77 29.7239 174.696 29.7429 174.6 29.7644C174.505 29.7875 174.388 29.8015 174.251 29.8065C173.997 29.8164 173.774 29.7825 173.583 29.7049C173.393 29.6273 173.245 29.5068 173.139 29.3434C173.034 29.18 172.982 28.9736 172.983 28.7243V25.0396ZM175.441 29.7545V25.9509H176.496V29.7545H175.441ZM175.971 25.4606C175.814 25.4606 175.68 25.4086 175.567 25.3046C175.457 25.1989 175.401 25.0726 175.401 24.9257C175.401 24.7804 175.457 24.6558 175.567 24.5518C175.68 24.4461 175.814 24.3933 175.971 24.3933C176.128 24.3933 176.262 24.4461 176.372 24.5518C176.484 24.6558 176.541 24.7804 176.541 24.9257C176.541 25.0726 176.484 25.1989 176.372 25.3046C176.262 25.4086 176.128 25.4606 175.971 25.4606ZM179.06 29.8287C178.675 29.8287 178.342 29.747 178.062 29.5836C177.783 29.4185 177.567 29.189 177.415 28.8952C177.263 28.5997 177.187 28.2571 177.187 27.8675C177.187 27.4746 177.263 27.1312 177.415 26.8374C177.567 26.5419 177.783 26.3124 178.062 26.149C178.342 25.9839 178.675 25.9014 179.06 25.9014C179.444 25.9014 179.776 25.9839 180.055 26.149C180.336 26.3124 180.552 26.5419 180.704 26.8374C180.856 27.1312 180.932 27.4746 180.932 27.8675C180.932 28.2571 180.856 28.5997 180.704 28.8952C180.552 29.189 180.336 29.4185 180.055 29.5836C179.776 29.747 179.444 29.8287 179.06 29.8287ZM179.065 29.0116C179.239 29.0116 179.386 28.962 179.503 28.863C179.62 28.7623 179.708 28.6253 179.768 28.4519C179.829 28.2786 179.859 28.0813 179.859 27.8601C179.859 27.6389 179.829 27.4416 179.768 27.2683C179.708 27.0949 179.62 26.9579 179.503 26.8572C179.386 26.7565 179.239 26.7062 179.065 26.7062C178.888 26.7062 178.739 26.7565 178.619 26.8572C178.5 26.9579 178.41 27.0949 178.349 27.2683C178.289 27.4416 178.26 27.6389 178.26 27.8601C178.26 28.0813 178.289 28.2786 178.349 28.4519C178.41 28.6253 178.5 28.7623 178.619 28.863C178.739 28.962 178.888 29.0116 179.065 29.0116ZM182.672 27.5555V29.7545H181.618V25.9509H182.623V26.622H182.667C182.752 26.4007 182.893 26.2258 183.091 26.097C183.289 25.9666 183.529 25.9014 183.812 25.9014C184.076 25.9014 184.306 25.9591 184.502 26.0747C184.699 26.1903 184.852 26.3553 184.961 26.57C185.069 26.7829 185.124 27.0371 185.124 27.3327V29.7545H184.069V27.5208C184.071 27.2881 184.011 27.1065 183.891 26.9761C183.77 26.844 183.604 26.778 183.393 26.778C183.251 26.778 183.126 26.8085 183.017 26.8696C182.909 26.9307 182.825 27.0198 182.764 27.137C182.705 27.2526 182.674 27.3921 182.672 27.5555ZM138.764 32.5671V31.683H142.929V32.5671H141.376V36.7545H140.317V32.5671H138.764ZM144.777 36.8287C144.386 36.8287 144.049 36.7495 143.767 36.591C143.486 36.4309 143.27 36.2047 143.118 35.9125C142.966 35.6187 142.89 35.2712 142.89 34.87C142.89 34.4788 142.966 34.1354 143.118 33.8399C143.27 33.5444 143.484 33.3141 143.759 33.149C144.037 32.9839 144.362 32.9014 144.735 32.9014C144.986 32.9014 145.219 32.9418 145.436 33.0227C145.654 33.1019 145.843 33.2216 146.005 33.3818C146.169 33.5419 146.296 33.7433 146.387 33.986C146.477 34.227 146.523 34.5093 146.523 34.8329V35.1226H143.311V34.4688H145.53C145.53 34.317 145.497 34.1824 145.431 34.0652C145.365 33.948 145.273 33.8564 145.156 33.7903C145.04 33.7227 144.906 33.6888 144.752 33.6888C144.592 33.6888 144.45 33.726 144.326 33.8002C144.204 33.8729 144.108 33.9711 144.039 34.0949C143.97 34.2171 143.934 34.3533 143.933 34.5035V35.1251C143.933 35.3133 143.967 35.4759 144.037 35.6129C144.108 35.7499 144.207 35.8556 144.336 35.9299C144.465 36.0041 144.618 36.0413 144.794 36.0413C144.911 36.0413 145.019 36.0248 145.116 35.9918C145.214 35.9587 145.297 35.9092 145.366 35.8432C145.436 35.7771 145.488 35.6963 145.525 35.6005L146.5 35.6649C146.451 35.8993 146.349 36.104 146.196 36.279C146.044 36.4523 145.848 36.5877 145.607 36.6851C145.367 36.7809 145.091 36.8287 144.777 36.8287ZM148.93 36.8287C148.54 36.8287 148.205 36.7462 147.924 36.5811C147.645 36.4144 147.431 36.1833 147.28 35.8878C147.132 35.5923 147.058 35.2522 147.058 34.8675C147.058 34.4779 147.133 34.1362 147.283 33.8423C147.435 33.5468 147.65 33.3165 147.929 33.1515C148.208 32.9847 148.54 32.9014 148.925 32.9014C149.257 32.9014 149.547 32.9616 149.796 33.0821C150.046 33.2026 150.243 33.3719 150.388 33.5898C150.533 33.8077 150.614 34.0636 150.628 34.3574H149.633C149.605 34.1676 149.531 34.0149 149.41 33.8993C149.291 33.7821 149.135 33.7235 148.942 33.7235C148.779 33.7235 148.636 33.7681 148.514 33.8572C148.393 33.9447 148.299 34.0726 148.231 34.241C148.164 34.4094 148.13 34.6133 148.13 34.8527C148.13 35.0953 148.163 35.3017 148.229 35.4717C148.297 35.6418 148.392 35.7714 148.514 35.8605C148.636 35.9497 148.779 35.9942 148.942 35.9942C149.063 35.9942 149.171 35.9695 149.266 35.9199C149.364 35.8704 149.444 35.7986 149.507 35.7045C149.571 35.6088 149.613 35.494 149.633 35.3603H150.628C150.612 35.6509 150.533 35.9067 150.391 36.128C150.25 36.3475 150.056 36.5192 149.809 36.643C149.561 36.7668 149.268 36.8287 148.93 36.8287ZM152.359 34.5555V36.7545H151.304V31.683H152.329V33.622H152.374C152.459 33.3974 152.598 33.2216 152.79 33.0945C152.981 32.9657 153.221 32.9014 153.51 32.9014C153.774 32.9014 154.005 32.9591 154.201 33.0747C154.399 33.1886 154.553 33.3529 154.662 33.5675C154.772 33.7804 154.827 34.0355 154.825 34.3327V36.7545H153.77V34.5208C153.772 34.2864 153.712 34.104 153.592 33.9736C153.473 33.8432 153.306 33.778 153.092 33.778C152.948 33.778 152.821 33.8085 152.71 33.8696C152.601 33.9307 152.516 34.0198 152.453 34.137C152.392 34.2526 152.36 34.3921 152.359 34.5555ZM156.71 34.5555V36.7545H155.655V32.9509H156.661V33.622H156.705C156.789 33.4007 156.931 33.2258 157.129 33.097C157.327 32.9666 157.567 32.9014 157.849 32.9014C158.113 32.9014 158.344 32.9591 158.54 33.0747C158.737 33.1903 158.889 33.3553 158.998 33.57C159.107 33.7829 159.162 34.0371 159.162 34.3327V36.7545H158.107V34.5208C158.108 34.2881 158.049 34.1065 157.928 33.9761C157.808 33.844 157.642 33.778 157.431 33.778C157.289 33.778 157.163 33.8085 157.054 33.8696C156.947 33.9307 156.863 34.0198 156.802 34.137C156.742 34.2526 156.712 34.3921 156.71 34.5555ZM161.712 36.8287C161.327 36.8287 160.994 36.747 160.714 36.5836C160.435 36.4185 160.219 36.189 160.067 35.8952C159.916 35.5997 159.84 35.2571 159.84 34.8675C159.84 34.4746 159.916 34.1312 160.067 33.8374C160.219 33.5419 160.435 33.3124 160.714 33.149C160.994 32.9839 161.327 32.9014 161.712 32.9014C162.096 32.9014 162.428 32.9839 162.707 33.149C162.988 33.3124 163.204 33.5419 163.356 33.8374C163.508 34.1312 163.584 34.4746 163.584 34.8675C163.584 35.2571 163.508 35.5997 163.356 35.8952C163.204 36.189 162.988 36.4185 162.707 36.5836C162.428 36.747 162.096 36.8287 161.712 36.8287ZM161.717 36.0116C161.892 36.0116 162.038 35.962 162.155 35.863C162.272 35.7623 162.36 35.6253 162.42 35.4519C162.481 35.2786 162.511 35.0813 162.511 34.8601C162.511 34.6389 162.481 34.4416 162.42 34.2683C162.36 34.0949 162.272 33.9579 162.155 33.8572C162.038 33.7565 161.892 33.7062 161.717 33.7062C161.54 33.7062 161.391 33.7565 161.271 33.8572C161.152 33.9579 161.062 34.0949 161.001 34.2683C160.942 34.4416 160.912 34.6389 160.912 34.8601C160.912 35.0813 160.942 35.2786 161.001 35.4519C161.062 35.6253 161.152 35.7623 161.271 35.863C161.391 35.962 161.54 36.0116 161.717 36.0116ZM165.325 31.683V36.7545H164.27V31.683H165.325ZM167.888 36.8287C167.503 36.8287 167.171 36.747 166.89 36.5836C166.611 36.4185 166.396 36.189 166.244 35.8952C166.092 35.5997 166.016 35.2571 166.016 34.8675C166.016 34.4746 166.092 34.1312 166.244 33.8374C166.396 33.5419 166.611 33.3124 166.89 33.149C167.171 32.9839 167.503 32.9014 167.888 32.9014C168.273 32.9014 168.605 32.9839 168.884 33.149C169.164 33.3124 169.38 33.5419 169.532 33.8374C169.684 34.1312 169.76 34.4746 169.76 34.8675C169.76 35.2571 169.684 35.5997 169.532 35.8952C169.38 36.189 169.164 36.4185 168.884 36.5836C168.605 36.747 168.273 36.8287 167.888 36.8287ZM167.893 36.0116C168.068 36.0116 168.214 35.962 168.331 35.863C168.449 35.7623 168.537 35.6253 168.596 35.4519C168.657 35.2786 168.688 35.0813 168.688 34.8601C168.688 34.6389 168.657 34.4416 168.596 34.2683C168.537 34.0949 168.449 33.9579 168.331 33.8572C168.214 33.7565 168.068 33.7062 167.893 33.7062C167.716 33.7062 167.568 33.7565 167.447 33.8572C167.328 33.9579 167.238 34.0949 167.177 34.2683C167.118 34.4416 167.088 34.6389 167.088 34.8601C167.088 35.0813 167.118 35.2786 167.177 35.4519C167.238 35.6253 167.328 35.7623 167.447 35.863C167.568 35.962 167.716 36.0116 167.893 36.0116ZM172.16 38.26C171.818 38.26 171.525 38.213 171.281 38.1189C171.038 38.0264 170.845 37.9001 170.701 37.74C170.558 37.5799 170.464 37.3999 170.421 37.2002L171.397 37.0689C171.427 37.1449 171.474 37.2159 171.538 37.2819C171.603 37.3479 171.688 37.4008 171.793 37.4404C171.901 37.4817 172.031 37.5023 172.184 37.5023C172.414 37.5023 172.603 37.4462 172.752 37.3339C172.902 37.2233 172.977 37.0376 172.977 36.7767V36.0809H172.932C172.886 36.1866 172.817 36.2864 172.724 36.3805C172.632 36.4746 172.513 36.5514 172.368 36.6108C172.222 36.6703 172.049 36.7 171.848 36.7C171.562 36.7 171.302 36.6339 171.068 36.5019C170.835 36.3682 170.649 36.1643 170.51 35.8902C170.373 35.6145 170.305 35.2662 170.305 34.8452C170.305 34.4144 170.375 34.0545 170.515 33.7656C170.656 33.4767 170.842 33.2604 171.075 33.1168C171.31 32.9732 171.566 32.9014 171.845 32.9014C172.058 32.9014 172.236 32.9377 172.38 33.0103C172.524 33.0813 172.639 33.1704 172.727 33.2778C172.816 33.3834 172.884 33.4874 172.932 33.5898H172.972V32.9509H174.019V36.7916C174.019 37.1152 173.94 37.3859 173.782 37.6038C173.623 37.8217 173.404 37.9852 173.123 38.0941C172.844 38.2047 172.523 38.26 172.16 38.26ZM172.182 35.9076C172.352 35.9076 172.496 35.8655 172.613 35.7813C172.732 35.6954 172.823 35.5733 172.885 35.4148C172.95 35.2547 172.982 35.0632 172.982 34.8403C172.982 34.6174 172.95 34.4243 172.888 34.2608C172.825 34.0958 172.734 33.9678 172.615 33.877C172.496 33.7862 172.352 33.7408 172.182 33.7408C172.009 33.7408 171.863 33.7879 171.744 33.882C171.625 33.9744 171.535 34.1032 171.474 34.2683C171.413 34.4334 171.382 34.624 171.382 34.8403C171.382 35.0599 171.413 35.2497 171.474 35.4098C171.537 35.5683 171.626 35.6913 171.744 35.7788C171.863 35.8646 172.009 35.9076 172.182 35.9076ZM175.51 38.1808C175.376 38.1808 175.251 38.1701 175.134 38.1486C175.018 38.1288 174.922 38.1032 174.846 38.0718L175.084 37.2844C175.208 37.3223 175.319 37.343 175.418 37.3463C175.519 37.3496 175.606 37.3265 175.678 37.277C175.753 37.2274 175.813 37.1432 175.859 37.0244L175.921 36.8634L174.557 32.9509H175.666L176.454 35.7441H176.493L177.288 32.9509H178.405L176.927 37.1655C176.856 37.3702 176.759 37.5485 176.637 37.7004C176.516 37.8539 176.364 37.972 176.179 38.0545C175.994 38.1387 175.771 38.1808 175.51 38.1808Z" fill="white"/>
<circle cx="225.158" cy="9.80805" r="9.15234" stroke="white" stroke-width="0.871652"/>
<path d="M226.902 11.5513L226.466 15.4738L228.427 14.6021L230.388 15.4738L229.953 11.5513M229.081 4.57812H221.672V14.6021H223.851L229.081 4.57812Z" stroke="white" stroke-width="0.871652" stroke-linecap="round" stroke-linejoin="round"/>
<path d="M228.427 11.9872C229.751 11.9872 230.824 10.914 230.824 9.59013C230.824 8.26628 229.751 7.19308 228.427 7.19308C227.103 7.19308 226.03 8.26628 226.03 9.59013C226.03 10.914 227.103 11.9872 228.427 11.9872Z" stroke="white" stroke-width="0.871652" stroke-linecap="round" stroke-linejoin="round"/>
<path d="M218.777 29.7545V24.683H220.778C221.161 24.683 221.487 24.7515 221.758 24.8886C222.031 25.0239 222.238 25.2163 222.38 25.4655C222.523 25.7132 222.595 26.0045 222.595 26.3397C222.595 26.6764 222.523 26.9662 222.377 27.2088C222.232 27.4499 222.021 27.6348 221.746 27.7635C221.472 27.8923 221.14 27.9567 220.75 27.9567H219.411V27.0949H220.577C220.782 27.0949 220.952 27.0669 221.087 27.0107C221.222 26.9546 221.323 26.8704 221.389 26.7582C221.457 26.6459 221.491 26.5064 221.491 26.3397C221.491 26.1713 221.457 26.0293 221.389 25.9137C221.323 25.7982 221.222 25.7107 221.085 25.6513C220.949 25.5902 220.778 25.5596 220.572 25.5596H219.849V29.7545H218.777ZM221.516 27.4466L222.776 29.7545H221.592L220.359 27.4466H221.516ZM227.595 24.683V29.7545H226.669L224.462 26.5625H224.425V29.7545H223.353V24.683H224.294L226.483 27.8725H226.528V24.683H227.595ZM231.843 26.3223C231.809 26.2018 231.76 26.0953 231.697 26.0029C231.635 25.9088 231.558 25.8295 231.467 25.7652C231.378 25.6991 231.276 25.6488 231.16 25.6141C231.046 25.5794 230.92 25.5621 230.781 25.5621C230.522 25.5621 230.294 25.6265 230.098 25.7553C229.903 25.884 229.751 26.0714 229.642 26.3174C229.533 26.5617 229.479 26.8605 229.479 27.2138C229.479 27.5671 229.532 27.8675 229.64 28.1152C229.747 28.3628 229.899 28.5518 230.095 28.6822C230.292 28.811 230.524 28.8754 230.791 28.8754C231.034 28.8754 231.241 28.8325 231.413 28.7466C231.586 28.6591 231.718 28.5361 231.809 28.3776C231.901 28.2192 231.947 28.0318 231.947 27.8155L232.165 27.8477H230.858V27.0404H232.98V27.6793C232.98 28.1251 232.886 28.5081 232.698 28.8283C232.51 29.1469 232.25 29.3929 231.92 29.5663C231.59 29.7379 231.212 29.8238 230.786 29.8238C230.311 29.8238 229.893 29.719 229.533 29.5093C229.173 29.298 228.893 28.9984 228.691 28.6104C228.491 28.2208 228.392 27.7586 228.392 27.2237C228.392 26.8126 228.451 26.4461 228.57 26.1242C228.69 25.8007 228.859 25.5266 229.075 25.3021C229.291 25.0776 229.543 24.9067 229.83 24.7895C230.117 24.6723 230.429 24.6137 230.764 24.6137C231.051 24.6137 231.318 24.6558 231.566 24.74C231.814 24.8225 232.033 24.9397 232.225 25.0916C232.418 25.2435 232.576 25.4243 232.698 25.6339C232.82 25.8419 232.898 26.0714 232.933 26.3223H231.843ZM215.628 33.4585H214.543C214.523 33.3182 214.483 33.1936 214.422 33.0846C214.361 32.974 214.282 32.8799 214.187 32.8023C214.091 32.7247 213.98 32.6653 213.855 32.624C213.731 32.5827 213.596 32.5621 213.451 32.5621C213.189 32.5621 212.96 32.6273 212.765 32.7577C212.57 32.8865 212.419 33.0747 212.312 33.3223C212.205 33.5683 212.151 33.8671 212.151 34.2187C212.151 34.5803 212.205 34.884 212.312 35.13C212.421 35.376 212.573 35.5617 212.768 35.6872C212.963 35.8126 213.188 35.8754 213.444 35.8754C213.587 35.8754 213.72 35.8564 213.842 35.8184C213.966 35.7805 214.076 35.7251 214.172 35.6525C214.268 35.5782 214.347 35.4882 214.409 35.3826C214.474 35.2769 214.518 35.1564 214.543 35.0211L215.628 35.026C215.6 35.2588 215.53 35.4833 215.417 35.6996C215.307 35.9142 215.157 36.1065 214.969 36.2765C214.783 36.4449 214.56 36.5786 214.301 36.6777C214.043 36.7751 213.752 36.8238 213.426 36.8238C212.974 36.8238 212.57 36.7214 212.213 36.5167C211.858 36.312 211.577 36.0157 211.371 35.6277C211.166 35.2398 211.064 34.7701 211.064 34.2187C211.064 33.6657 211.168 33.1952 211.376 32.8073C211.584 32.4193 211.866 32.1238 212.223 31.9208C212.58 31.716 212.981 31.6137 213.426 31.6137C213.72 31.6137 213.993 31.655 214.244 31.7375C214.496 31.82 214.72 31.9406 214.915 32.099C215.109 32.2559 215.268 32.4482 215.39 32.676C215.514 32.9038 215.593 33.1647 215.628 33.4585ZM218.11 36.8287C217.719 36.8287 217.382 36.7495 217.1 36.591C216.819 36.4309 216.603 36.2047 216.451 35.9125C216.299 35.6187 216.223 35.2712 216.223 34.87C216.223 34.4788 216.299 34.1354 216.451 33.8399C216.603 33.5444 216.817 33.3141 217.093 33.149C217.37 32.9839 217.695 32.9014 218.068 32.9014C218.319 32.9014 218.553 32.9418 218.769 33.0227C218.987 33.1019 219.177 33.2216 219.339 33.3818C219.502 33.5419 219.629 33.7433 219.72 33.986C219.811 34.227 219.856 34.5093 219.856 34.8329V35.1226H216.644V34.4688H218.863C218.863 34.317 218.83 34.1824 218.764 34.0652C218.698 33.948 218.606 33.8564 218.489 33.7903C218.374 33.7227 218.239 33.6888 218.086 33.6888C217.925 33.6888 217.783 33.726 217.66 33.8002C217.537 33.8729 217.442 33.9711 217.372 34.0949C217.303 34.2171 217.268 34.3533 217.266 34.5035V35.1251C217.266 35.3133 217.301 35.4759 217.37 35.6129C217.441 35.7499 217.541 35.8556 217.67 35.9299C217.798 36.0041 217.951 36.0413 218.128 36.0413C218.245 36.0413 218.352 36.0248 218.45 35.9918C218.547 35.9587 218.63 35.9092 218.7 35.8432C218.769 35.7771 218.822 35.6963 218.858 35.6005L219.834 35.6649C219.784 35.8993 219.683 36.104 219.529 36.279C219.377 36.4523 219.181 36.5877 218.94 36.6851C218.7 36.7809 218.424 36.8287 218.11 36.8287ZM220.544 36.7545V32.9509H221.567V33.6145H221.607C221.676 33.3785 221.793 33.2002 221.956 33.0797C222.119 32.9575 222.308 32.8964 222.521 32.8964C222.573 32.8964 222.63 32.8997 222.691 32.9063C222.753 32.9129 222.806 32.922 222.852 32.9335V33.8696C222.803 33.8547 222.734 33.8415 222.647 33.83C222.559 33.8184 222.479 33.8126 222.407 33.8126C222.251 33.8126 222.113 33.8465 221.991 33.9142C221.87 33.9802 221.774 34.0726 221.703 34.1915C221.634 34.3104 221.599 34.4474 221.599 34.6026V36.7545H220.544ZM225.612 32.9509V33.7433H223.321V32.9509H225.612ZM223.841 32.0396H224.896V35.5856C224.896 35.6831 224.911 35.759 224.941 35.8135C224.97 35.8663 225.011 35.9034 225.064 35.9249C225.119 35.9464 225.182 35.9571 225.253 35.9571C225.302 35.9571 225.352 35.953 225.401 35.9447C225.451 35.9348 225.489 35.9274 225.515 35.9224L225.681 36.7074C225.628 36.7239 225.554 36.7429 225.458 36.7644C225.362 36.7875 225.246 36.8015 225.109 36.8065C224.855 36.8164 224.632 36.7825 224.44 36.7049C224.25 36.6273 224.103 36.5068 223.997 36.3434C223.891 36.18 223.839 35.9736 223.841 35.7243V32.0396ZM226.299 36.7545V32.9509H227.354V36.7545H226.299ZM226.829 32.4606C226.672 32.4606 226.537 32.4086 226.425 32.3046C226.314 32.1989 226.259 32.0726 226.259 31.9257C226.259 31.7804 226.314 31.6558 226.425 31.5518C226.537 31.4461 226.672 31.3933 226.829 31.3933C226.986 31.3933 227.119 31.4461 227.23 31.5518C227.342 31.6558 227.398 31.7804 227.398 31.9257C227.398 32.0726 227.342 32.1989 227.23 32.3046C227.119 32.4086 226.986 32.4606 226.829 32.4606ZM230.244 32.9509V33.7433H227.897V32.9509H230.244ZM228.434 36.7545V32.676C228.434 32.4003 228.488 32.1717 228.595 31.9901C228.704 31.8085 228.852 31.6723 229.041 31.5815C229.229 31.4907 229.443 31.4453 229.682 31.4453C229.844 31.4453 229.992 31.4577 230.125 31.4824C230.261 31.5072 230.361 31.5295 230.427 31.5493L230.239 32.3417C230.198 32.3285 230.147 32.3161 230.086 32.3046C230.026 32.293 229.965 32.2872 229.902 32.2872C229.747 32.2872 229.639 32.3236 229.578 32.3962C229.517 32.4672 229.486 32.5671 229.486 32.6958V36.7545H228.434ZM230.889 36.7545V32.9509H231.943V36.7545H230.889ZM231.418 32.4606C231.262 32.4606 231.127 32.4086 231.015 32.3046C230.904 32.1989 230.849 32.0726 230.849 31.9257C230.849 31.7804 230.904 31.6558 231.015 31.5518C231.127 31.4461 231.262 31.3933 231.418 31.3933C231.575 31.3933 231.709 31.4461 231.82 31.5518C231.932 31.6558 231.988 31.7804 231.988 31.9257C231.988 32.0726 231.932 32.1989 231.82 32.3046C231.709 32.4086 231.575 32.4606 231.418 32.4606ZM234.522 36.8287C234.131 36.8287 233.794 36.7495 233.512 36.591C233.231 36.4309 233.015 36.2047 232.863 35.9125C232.711 35.6187 232.635 35.2712 232.635 34.87C232.635 34.4788 232.711 34.1354 232.863 33.8399C233.015 33.5444 233.228 33.3141 233.504 33.149C233.781 32.9839 234.107 32.9014 234.48 32.9014C234.731 32.9014 234.964 32.9418 235.181 33.0227C235.398 33.1019 235.588 33.2216 235.75 33.3818C235.914 33.5419 236.041 33.7433 236.131 33.986C236.222 34.227 236.268 34.5093 236.268 34.8329V35.1226H233.056V34.4688H235.275C235.275 34.317 235.242 34.1824 235.176 34.0652C235.11 33.948 235.018 33.8564 234.901 33.7903C234.785 33.7227 234.651 33.6888 234.497 33.6888C234.337 33.6888 234.195 33.726 234.071 33.8002C233.949 33.8729 233.853 33.9711 233.784 34.0949C233.715 34.2171 233.679 34.3533 233.677 34.5035V35.1251C233.677 35.3133 233.712 35.4759 233.781 35.6129C233.852 35.7499 233.952 35.8556 234.081 35.9299C234.21 36.0041 234.363 36.0413 234.539 36.0413C234.656 36.0413 234.764 36.0248 234.861 35.9918C234.959 35.9587 235.042 35.9092 235.111 35.8432C235.181 35.7771 235.233 35.6963 235.27 35.6005L236.245 35.6649C236.196 35.8993 236.094 36.104 235.941 36.279C235.789 36.4523 235.592 36.5877 235.351 36.6851C235.112 36.7809 234.836 36.8287 234.522 36.8287ZM238.358 36.8164C238.069 36.8164 237.807 36.7421 237.573 36.5935C237.34 36.4433 237.155 36.2229 237.018 35.9323C236.883 35.6401 236.815 35.2819 236.815 34.8576C236.815 34.4218 236.885 34.0594 237.025 33.7705C237.166 33.48 237.352 33.2629 237.585 33.1193C237.819 32.974 238.076 32.9014 238.355 32.9014C238.568 32.9014 238.746 32.9377 238.888 33.0103C239.031 33.0813 239.147 33.1704 239.234 33.2778C239.323 33.3834 239.391 33.4874 239.437 33.5898H239.469V31.683H240.522V36.7545H239.482V36.1453H239.437C239.388 36.2509 239.318 36.3558 239.227 36.4598C239.138 36.5621 239.021 36.6471 238.878 36.7148C238.736 36.7825 238.562 36.8164 238.358 36.8164ZM238.692 35.9769C238.862 35.9769 239.006 35.9307 239.123 35.8382C239.242 35.7441 239.332 35.6129 239.395 35.4445C239.46 35.2761 239.492 35.0788 239.492 34.8527C239.492 34.6265 239.46 34.4301 239.398 34.2633C239.335 34.0966 239.244 33.9678 239.125 33.877C239.006 33.7862 238.862 33.7408 238.692 33.7408C238.519 33.7408 238.372 33.7879 238.254 33.882C238.135 33.9761 238.045 34.1065 237.984 34.2732C237.923 34.44 237.892 34.6331 237.892 34.8527C237.892 35.0739 237.923 35.2695 237.984 35.4395C238.046 35.6079 238.136 35.74 238.254 35.8358C238.372 35.9299 238.519 35.9769 238.692 35.9769Z" fill="white"/>
</svg>
