<svg width="24" height="24" viewBox="0 0 24 24" fill="none" xmlns="http://www.w3.org/2000/svg">
<g clip-path="url(#clip0_79_452)">
<path d="M8.0488 7.39023C8.0488 7.39023 9.19639 7.39023 10.3537 7.39023M13.3171 17.9268L8.70733 13.3171C8.70733 13.3171 9.69514 13.3171 10.3537 13.3171C11.0122 13.3171 13.9756 13.3577 13.9756 10.3536C13.9756 7.34954 11.0122 7.39023 10.3537 7.39023M15.9512 7.39023C15.9512 7.39023 12.2825 7.39023 10.3537 7.39023M8.0488 10.3536H15.9512" stroke="#999999" stroke-width="1.31707"/>
</g>
<path d="M24 12C24 18.6274 18.6274 24 12 24C5.37258 24 0 18.6274 0 12C0 5.37258 5.37258 0 12 0C18.6274 0 24 5.37258 24 12ZM2.03651 12C2.03651 17.5027 6.49732 21.9635 12 21.9635C17.5027 21.9635 21.9635 17.5027 21.9635 12C21.9635 6.49732 17.5027 2.03651 12 2.03651C6.49732 2.03651 2.03651 6.49732 2.03651 12Z" fill="#999999"/>
<defs>
<clipPath id="clip0_79_452">
<rect width="7.90244" height="10.5366" fill="white" transform="translate(8.0488 6.73169)"/>
</clipPath>
</defs>
</svg>
