<svg width="20" height="24" viewBox="0 0 20 24" fill="none" xmlns="http://www.w3.org/2000/svg">
<g clip-path="url(#clip0_190_192)">
<path d="M17.1327 4.2163C17.5464 4.2163 17.5464 4.2163 17.5464 4.60738C17.5464 5.00937 17.5464 5.00937 17.1444 5.00937C16.7328 5.00937 16.7328 5.00937 16.7328 4.59747C16.7328 4.2163 16.7328 4.2163 17.1327 4.2163ZM3.33007 4.2163C3.75241 4.2163 3.75241 4.2163 3.75241 4.62275C3.75241 5.00937 3.75241 5.00937 3.36209 5.00937C2.93822 5.00937 2.93822 5.00937 2.93822 4.6054C2.93822 4.2163 2.93822 4.2163 3.33007 4.2163ZM3.33007 4.2163C3.75241 4.2163 3.75241 4.2163 3.75241 4.62275C3.75241 5.00937 3.75241 5.00937 3.36209 5.00937C2.93822 5.00937 2.93822 5.00937 2.93822 4.6054C2.93822 4.2163 2.93822 4.2163 3.33007 4.2163ZM17.1327 4.2163C17.5464 4.2163 17.5464 4.2163 17.5464 4.60738C17.5464 5.00937 17.5464 5.00937 17.1444 5.00937C16.7328 5.00937 16.7328 5.00937 16.7328 4.59747C16.7328 4.2163 16.7328 4.2163 17.1327 4.2163ZM17.1327 4.2163C17.5464 4.2163 17.5464 4.2163 17.5464 4.60738C17.5464 5.00937 17.5464 5.00937 17.1444 5.00937C16.7328 5.00937 16.7328 5.00937 16.7328 4.59747C16.7328 4.2163 16.7328 4.2163 17.1327 4.2163ZM10.2517 8.56977C10.5722 8.57441 10.878 8.70098 11.1041 8.92249C11.3302 9.14399 11.4586 9.44289 11.4618 9.75541C11.4457 10.0594 11.3106 10.3458 11.0845 10.5556C10.8584 10.7654 10.5584 10.8827 10.2463 10.8833C9.93415 10.884 9.63367 10.7679 9.40665 10.559C9.17963 10.3501 9.04335 10.0643 9.02587 9.76037C9.02775 9.44431 9.15766 9.14179 9.38729 8.91876C9.61693 8.69573 9.92766 8.57029 10.2517 8.56977ZM7.00207 12.55C7.00207 12.3493 6.99597 12.1485 7.00207 11.9483C7.00817 11.748 6.91059 11.4813 7.04273 11.3767C7.17487 11.2722 7.4356 11.3574 7.63838 11.3396C7.79899 11.3257 7.81627 11.3956 7.81372 11.5264C7.8061 11.9195 7.82389 12.3136 7.80559 12.7061C7.79695 12.899 7.8676 12.9346 8.04294 12.9252C8.29706 12.9118 8.55118 12.9173 8.80174 12.9252C9.00503 12.9302 9.27795 12.838 9.39332 12.9609C9.51784 13.0928 9.41975 13.3574 9.43144 13.5627C9.43093 13.5704 9.43093 13.5782 9.43144 13.586C9.4477 13.6881 9.40145 13.7163 9.2993 13.7158C8.57913 13.7123 7.85947 13.7114 7.1398 13.7158C7.02037 13.7158 6.99648 13.6752 6.99801 13.5671C7.00563 13.2291 7.00207 12.8895 7.00207 12.55ZM3.33007 4.2163C3.75241 4.2163 3.75241 4.2163 3.75241 4.62275C3.75241 5.00937 3.75241 5.00937 3.36209 5.00937C2.93822 5.00937 2.93822 5.00937 2.93822 4.6054C2.93822 4.2163 2.93822 4.2163 3.33007 4.2163ZM3.33007 4.2163C3.75241 4.2163 3.75241 4.2163 3.75241 4.62275C3.75241 5.00937 3.75241 5.00937 3.36209 5.00937C2.93822 5.00937 2.93822 5.00937 2.93822 4.6054C2.93822 4.2163 2.93822 4.2163 3.33007 4.2163ZM17.1327 4.2163C17.5464 4.2163 17.5464 4.2163 17.5464 4.60738C17.5464 5.00937 17.5464 5.00937 17.1444 5.00937C16.7328 5.00937 16.7328 5.00937 16.7328 4.59747C16.7328 4.2163 16.7328 4.2163 17.1327 4.2163ZM7.00207 12.55C7.00207 12.3493 6.99597 12.1485 7.00207 11.9483C7.00817 11.748 6.91059 11.4813 7.04273 11.3767C7.17487 11.2722 7.4356 11.3574 7.63838 11.3396C7.79899 11.3257 7.81627 11.3956 7.81372 11.5264C7.8061 11.9195 7.82389 12.3136 7.80559 12.7061C7.79695 12.899 7.8676 12.9346 8.04294 12.9252C8.29706 12.9118 8.55118 12.9173 8.80174 12.9252C9.00503 12.9302 9.27795 12.838 9.39332 12.9609C9.51784 13.0928 9.41975 13.3574 9.43144 13.5627C9.43093 13.5704 9.43093 13.5782 9.43144 13.586C9.4477 13.6881 9.40145 13.7163 9.2993 13.7158C8.57913 13.7123 7.85947 13.7114 7.1398 13.7158C7.02037 13.7158 6.99648 13.6752 6.99801 13.5671C7.00563 13.2291 7.00207 12.8895 7.00207 12.55ZM9.02231 9.76037C9.01302 9.599 9.03755 9.43747 9.0944 9.28565C9.15125 9.13383 9.23922 8.9949 9.35295 8.87734C9.46668 8.75978 9.60377 8.66606 9.75588 8.60189C9.90798 8.53772 10.0719 8.50445 10.2376 8.50411C10.4033 8.50377 10.5674 8.53638 10.7198 8.59993C10.8721 8.66348 11.0096 8.75664 11.1239 8.87374C11.2381 8.99084 11.3267 9.12941 11.3842 9.28099C11.4417 9.43258 11.4669 9.594 11.4583 9.75541C11.4421 10.0594 11.307 10.3458 11.0809 10.5556C10.8548 10.7654 10.5548 10.8827 10.2427 10.8833C9.9306 10.884 9.63011 10.7679 9.40309 10.559C9.17607 10.3501 9.0398 10.0643 9.02231 9.76037ZM0.500208 0.48539C0.500208 0.300009 0.551031 0.25986 0.734505 0.260851C2.13673 0.268287 3.53844 0.264817 4.94067 0.264817C9.86683 0.264817 14.7933 0.263495 19.7202 0.260851C19.9118 0.260851 19.9916 0.28167 19.9865 0.503234C19.9687 1.26756 19.9804 2.03238 19.9789 2.7972C19.9789 2.99546 20.0454 3.2542 19.9443 3.3801C19.8366 3.51443 19.5596 3.4262 19.3583 3.42075C19.1926 3.41579 19.1652 3.47527 19.1657 3.61902C19.1718 4.52262 19.1626 5.42673 19.1738 6.33033C19.1764 6.53405 19.1337 6.60345 18.907 6.60097C17.7111 6.58858 16.5147 6.59799 15.3188 6.59205C15.1598 6.59205 15.1003 6.62426 15.1018 6.79378C15.111 7.66666 15.1084 8.54003 15.1018 9.4129C15.0988 9.46972 15.1089 9.52648 15.1312 9.57904C15.1535 9.63161 15.1876 9.67865 15.2309 9.71675C15.6492 10.1173 16.0543 10.5311 16.4791 10.9247C16.6682 11.0992 16.7363 11.29 16.7333 11.5393C16.7256 13.1151 16.7282 14.6913 16.7333 16.267C16.7347 16.4521 16.7024 16.6358 16.6377 16.8098C16.1513 18.1283 15.697 19.4587 15.176 20.7638C14.8259 21.6406 14.6088 22.5214 14.7054 23.4632C14.7224 23.5702 14.7042 23.6796 14.6535 23.7759C14.6029 23.8723 14.5223 23.9505 14.4233 23.9995H9.29015C9.07364 23.8681 9.01672 23.6733 9.01774 23.4329C9.0235 21.5712 9.0235 19.7095 9.01774 17.8477C9.01672 17.678 9.05276 17.5101 9.12345 17.355C9.39841 16.7414 9.66065 16.1223 9.94171 15.5116C10.0276 15.3248 9.99558 15.2876 9.78924 15.2886C8.5217 15.2965 7.25466 15.2925 5.98712 15.2925C5.47177 15.2925 5.37724 15.1994 5.37724 14.7027C5.37724 12.076 5.3786 9.44892 5.38131 6.82154C5.38131 6.64112 5.33607 6.58858 5.1465 6.58957C3.94249 6.59849 2.73848 6.58957 1.53447 6.59799C1.36014 6.59799 1.30729 6.55933 1.30932 6.38139C1.3205 5.6012 1.31694 4.82102 1.31237 4.04083C1.31237 3.84256 1.39877 3.58928 1.27425 3.4604C1.15837 3.34095 0.898157 3.42025 0.703503 3.42917C0.527653 3.43711 0.500208 3.37366 0.500208 3.21852C0.508848 2.30846 0.510881 1.39693 0.500208 0.48539ZM9.87005 23.1692C9.98847 23.2946 10.2431 23.2069 10.4377 23.2079C11.5228 23.2124 12.6074 23.2079 13.6905 23.2139C13.8582 23.2139 13.9161 23.1717 13.8938 23.0091C13.8699 22.8198 13.9766 22.5675 13.8511 22.456C13.7448 22.3618 13.4912 22.4218 13.3032 22.4208C12.828 22.4183 12.3528 22.4208 11.8801 22.4208C11.2626 22.4208 10.6446 22.4267 10.0271 22.4173C9.86954 22.4148 9.81567 22.4575 9.83142 22.6096C9.85277 22.7995 9.75366 23.0458 9.87005 23.1692ZM9.92087 17.5478C9.86048 17.6816 9.82999 17.8265 9.83142 17.9726C9.83549 19.1161 9.83752 20.2592 9.83142 21.4027C9.83142 21.5801 9.87056 21.6361 10.0637 21.6346C11.315 21.6251 12.5662 21.6251 13.8175 21.6346C13.973 21.6346 14.0361 21.5851 14.0848 21.4483C14.6734 19.8225 15.2663 18.198 15.8637 16.5748C15.9016 16.4735 15.9211 16.3665 15.9211 16.2586C15.9211 14.7369 15.9211 13.2152 15.9211 11.6935C15.9241 11.6329 15.9135 11.5724 15.8898 11.5163C15.8662 11.4602 15.8302 11.4098 15.7844 11.3688C15.5714 11.1651 15.3717 10.9475 15.1669 10.7358L15.1054 10.781C15.1054 12.0932 15.1054 13.4052 15.1054 14.7171C15.1054 15.1979 15.0037 15.294 14.5041 15.294C14.0925 15.294 13.6803 15.3005 13.2691 15.2906C13.1238 15.2871 13.078 15.3243 13.0816 15.4695C13.0912 15.8789 13.0785 16.2883 13.0882 16.6978C13.0918 16.8405 13.0496 16.8792 12.9032 16.8807C12.2735 16.8891 12.2735 16.8941 12.2735 16.2814C12.2735 15.2078 12.2735 14.1338 12.2735 13.0596C12.2735 12.663 12.1414 12.5327 11.7348 12.5297C11.6794 12.5297 11.624 12.5297 11.5686 12.5297C11.1899 12.5346 11.0527 12.6665 11.0517 13.0318C11.0517 13.5959 11.0466 14.1599 11.0542 14.7235C11.0565 14.9006 11.0192 15.076 10.945 15.2375C10.6024 16.0068 10.2649 16.7786 9.9224 17.5478H9.92087ZM6.43589 14.5084C7.63177 14.496 8.82765 14.4985 10.0235 14.5084C10.1958 14.5084 10.2522 14.4777 10.2461 14.2977C10.2304 13.8516 10.2375 13.4016 10.2416 12.9535C10.2477 12.2843 10.7117 11.7991 11.3927 11.7435C11.9635 11.697 12.2237 11.7505 12.6709 12.0206C12.6709 11.8303 12.677 11.6583 12.6709 11.4868C12.6653 11.3758 12.704 11.347 12.8168 11.3416C13.4841 11.3103 13.4841 11.3074 13.4841 11.9478C13.4841 12.4727 13.479 12.9981 13.4872 13.5235C13.4872 13.6667 13.4607 13.7456 13.2971 13.7138C13.1085 13.6772 13.0684 13.7659 13.0836 13.9304C13.1009 14.1128 13.0272 14.3537 13.1217 14.4658C13.2163 14.5778 13.4775 14.501 13.6645 14.5015C13.8678 14.5015 14.1347 14.5892 14.2582 14.4673C14.3817 14.3453 14.2937 14.0866 14.2937 13.8883C14.2937 11.0134 14.2937 8.14102 14.3008 5.26762C14.3008 5.05002 14.2383 5.00045 14.0259 5.0059C13.4841 5.02028 13.4841 5.01036 13.4841 5.53577C13.4841 7.13431 13.4806 8.73334 13.4882 10.3324C13.4882 10.5148 13.4414 10.5629 13.2554 10.5594C12.6735 10.5485 12.6735 10.5564 12.6735 9.98045V6.71348C11.5091 7.95563 9.38214 8.27633 7.81372 6.74223V6.98561C7.81372 8.09789 7.81017 9.21018 7.81677 10.3225C7.81677 10.491 7.7934 10.5822 7.59112 10.5554C7.40459 10.5311 7.16064 10.6293 7.04171 10.5192C6.92279 10.4092 7.00512 10.1688 7.00461 9.98639C7.00156 8.40256 7.00241 6.81906 7.00715 5.23589C7.00715 5.05596 6.96395 5.00095 6.77337 5.00392C6.19194 5.01383 6.19143 5.00392 6.19143 5.56353C6.19143 8.46023 6.18991 11.3569 6.18686 14.2536C6.18534 14.4479 6.2199 14.5109 6.43742 14.5084H6.43589ZM12.4275 5.00541C11.6997 5.01334 10.9724 5.00888 10.2446 5.00888C9.5092 5.00888 8.77073 5.01433 8.03786 5.00491C7.85997 5.00491 7.84371 5.05993 7.88132 5.20566C8.01744 5.71438 8.32249 6.16479 8.74883 6.48655C9.17517 6.80831 9.69878 6.98328 10.2379 6.98413C10.7769 6.98498 11.3011 6.81166 11.7285 6.49125C12.1559 6.17083 12.4625 5.72138 12.6003 5.21309C12.647 5.04209 12.6018 5.00342 12.4275 5.00541ZM2.12351 5.60913C2.12351 5.75783 2.16214 5.8074 2.32173 5.8074C3.28026 5.7998 4.23862 5.7998 5.19682 5.8074C5.34624 5.8074 5.38029 5.75783 5.38232 5.62152C5.38944 5.01631 5.39401 5.00838 4.78006 5.01631C4.59557 5.01631 4.55949 4.96327 4.56152 4.79574C4.56864 4.21927 4.56152 4.21927 5.15158 4.21927C8.65299 4.21927 12.1541 4.21746 15.6548 4.21382C15.8799 4.21382 15.9292 4.27776 15.9236 4.48347C15.9099 5.01086 15.9191 5.02375 15.3834 5.00541C15.1491 4.99748 15.0927 5.06489 15.1003 5.28645C15.1181 5.80393 15.1059 5.80443 15.6329 5.80443C16.4725 5.80443 17.3101 5.79997 18.1518 5.8079C18.321 5.8079 18.3637 5.75833 18.3611 5.59922C18.3525 4.95039 18.35 4.30106 18.3611 3.65223C18.3647 3.46635 18.3103 3.42372 18.1238 3.42422C15.4942 3.43017 12.8644 3.43149 10.2345 3.42818C7.61263 3.42818 4.99081 3.4267 2.36899 3.42372C2.17281 3.42372 2.11487 3.47329 2.12046 3.66462C2.1347 4.31097 2.13165 4.9603 2.12351 5.60913ZM1.31034 1.32406C1.33219 1.69334 1.32508 2.06757 1.31034 2.43585C1.30424 2.60091 1.35709 2.63957 1.52075 2.63858C2.93872 2.63214 4.35619 2.63511 5.77417 2.63511H10.2665C13.1492 2.63511 16.0322 2.63676 18.9156 2.64007C19.123 2.64007 19.185 2.59546 19.1743 2.38876C19.155 2.00313 19.1616 1.61601 19.1743 1.23038C19.1784 1.08168 19.1311 1.03211 18.9873 1.05392C18.9558 1.0564 18.9242 1.0564 18.8928 1.05392C13.1256 1.05392 7.35902 1.05244 1.59292 1.04946C1.36573 1.04897 1.29712 1.09705 1.30983 1.32406H1.31034ZM3.33007 4.2163C3.75241 4.2163 3.75241 4.2163 3.75241 4.62275C3.75241 5.00937 3.75241 5.00937 3.36209 5.00937C2.93822 5.00937 2.93822 5.00937 2.93822 4.6054C2.93822 4.2163 2.93822 4.2163 3.33007 4.2163ZM7.04426 11.3767C7.1703 11.2776 7.43712 11.3574 7.63991 11.3396C7.80051 11.3257 7.81779 11.3956 7.81525 11.5264C7.80763 11.9195 7.82541 12.3136 7.80712 12.7061C7.79848 12.899 7.86912 12.9346 8.04446 12.9252C8.29858 12.9118 8.5527 12.9173 8.80326 12.9252C9.00655 12.9302 9.27948 12.838 9.39485 12.9609C9.51936 13.0928 9.42128 13.3574 9.43296 13.5627C9.43246 13.5704 9.43246 13.5782 9.43296 13.586C9.44923 13.6881 9.40298 13.7163 9.30082 13.7158C8.58065 13.7123 7.86099 13.7114 7.14133 13.7158C7.02189 13.7158 6.99801 13.6752 6.99953 13.5671C7.00563 13.2281 7.00207 12.8885 7.00207 12.549C7.00207 12.3483 6.99597 12.1475 7.00207 11.9473C7.00817 11.747 6.91211 11.4813 7.04426 11.3767ZM9.02638 9.76037C9.01709 9.599 9.04162 9.43747 9.09847 9.28565C9.15531 9.13383 9.24329 8.9949 9.35701 8.87734C9.47074 8.75978 9.60784 8.66606 9.75994 8.60189C9.91204 8.53772 10.076 8.50445 10.2417 8.50411C10.4074 8.50377 10.5715 8.53638 10.7238 8.59993C10.8762 8.66348 11.0137 8.75664 11.1279 8.87374C11.2422 8.99084 11.3307 9.12941 11.3882 9.28099C11.4457 9.43258 11.4709 9.594 11.4624 9.75541C11.4462 10.0594 11.3111 10.3458 11.085 10.5556C10.8589 10.7654 10.5589 10.8827 10.2468 10.8833C9.93466 10.884 9.63418 10.7679 9.40716 10.559C9.18014 10.3501 9.04386 10.0643 9.02638 9.76037ZM17.1327 4.2163C17.5464 4.2163 17.5464 4.2163 17.5464 4.60738C17.5464 5.00937 17.5464 5.00937 17.1444 5.00937C16.7328 5.00937 16.7328 5.00937 16.7328 4.59747C16.7328 4.2163 16.7328 4.2163 17.1327 4.2163ZM10.2517 8.56977C10.5722 8.57441 10.878 8.70098 11.1041 8.92249C11.3302 9.14399 11.4586 9.44289 11.4618 9.75541C11.4457 10.0594 11.3106 10.3458 11.0845 10.5556C10.8584 10.7654 10.5584 10.8827 10.2463 10.8833C9.93415 10.884 9.63367 10.7679 9.40665 10.559C9.17963 10.3501 9.04335 10.0643 9.02587 9.76037C9.02775 9.44431 9.15766 9.14179 9.38729 8.91876C9.61693 8.69573 9.92766 8.57029 10.2517 8.56977ZM7.00207 12.55C7.00207 12.3493 6.99597 12.1485 7.00207 11.9483C7.00817 11.748 6.91059 11.4813 7.04273 11.3767C7.17487 11.2722 7.4356 11.3574 7.63838 11.3396C7.79899 11.3257 7.81627 11.3956 7.81372 11.5264C7.8061 11.9195 7.82389 12.3136 7.80559 12.7061C7.79695 12.899 7.8676 12.9346 8.04294 12.9252C8.29706 12.9118 8.55118 12.9173 8.80174 12.9252C9.00503 12.9302 9.27795 12.838 9.39332 12.9609C9.51784 13.0928 9.41975 13.3574 9.43144 13.5627C9.43093 13.5704 9.43093 13.5782 9.43144 13.586C9.4477 13.6881 9.40145 13.7163 9.2993 13.7158C8.57913 13.7123 7.85947 13.7114 7.1398 13.7158C7.02037 13.7158 6.99648 13.6752 6.99801 13.5671C7.00563 13.2291 7.00207 12.8895 7.00207 12.55ZM17.1327 4.2163C17.5464 4.2163 17.5464 4.2163 17.5464 4.60738C17.5464 5.00937 17.5464 5.00937 17.1444 5.00937C16.7328 5.00937 16.7328 5.00937 16.7328 4.59747C16.7328 4.2163 16.7328 4.2163 17.1327 4.2163ZM3.33007 4.2163C3.75241 4.2163 3.75241 4.2163 3.75241 4.62275C3.75241 5.00937 3.75241 5.00937 3.36209 5.00937C2.93822 5.00937 2.93822 5.00937 2.93822 4.6054C2.93822 4.2163 2.93822 4.2163 3.33007 4.2163ZM3.33007 4.2163C3.75241 4.2163 3.75241 4.2163 3.75241 4.62275C3.75241 5.00937 3.75241 5.00937 3.36209 5.00937C2.93822 5.00937 2.93822 5.00937 2.93822 4.6054C2.93822 4.2163 2.93822 4.2163 3.33007 4.2163ZM7.00207 12.55C7.00207 12.3493 6.99597 12.1485 7.00207 11.9483C7.00817 11.748 6.91059 11.4813 7.04273 11.3767C7.17487 11.2722 7.4356 11.3574 7.63838 11.3396C7.79899 11.3257 7.81627 11.3956 7.81372 11.5264C7.8061 11.9195 7.82389 12.3136 7.80559 12.7061C7.79695 12.899 7.8676 12.9346 8.04294 12.9252C8.29706 12.9118 8.55118 12.9173 8.80174 12.9252C9.00503 12.9302 9.27795 12.838 9.39332 12.9609C9.51784 13.0928 9.41975 13.3574 9.43144 13.5627C9.43093 13.5704 9.43093 13.5782 9.43144 13.586C9.4477 13.6881 9.40145 13.7163 9.2993 13.7158C8.57913 13.7123 7.85947 13.7114 7.1398 13.7158C7.02037 13.7158 6.99648 13.6752 6.99801 13.5671C7.00563 13.2291 7.00207 12.8895 7.00207 12.55ZM10.2517 8.56977C10.5722 8.57441 10.878 8.70098 11.1041 8.92249C11.3302 9.14399 11.4586 9.44289 11.4618 9.75541C11.4457 10.0594 11.3106 10.3458 11.0845 10.5556C10.8584 10.7654 10.5584 10.8827 10.2463 10.8833C9.93415 10.884 9.63367 10.7679 9.40665 10.559C9.17963 10.3501 9.04335 10.0643 9.02587 9.76037C9.02775 9.44431 9.15766 9.14179 9.38729 8.91876C9.61693 8.69573 9.92766 8.57029 10.2517 8.56977ZM17.1327 4.2163C17.5464 4.2163 17.5464 4.2163 17.5464 4.60738C17.5464 5.00937 17.5464 5.00937 17.1444 5.00937C16.7328 5.00937 16.7328 5.00937 16.7328 4.59747C16.7328 4.2163 16.7328 4.2163 17.1327 4.2163ZM17.1327 4.2163C17.5464 4.2163 17.5464 4.2163 17.5464 4.60738C17.5464 5.00937 17.5464 5.00937 17.1444 5.00937C16.7328 5.00937 16.7328 5.00937 16.7328 4.59747C16.7328 4.2163 16.7328 4.2163 17.1327 4.2163ZM3.33007 4.2163C3.75241 4.2163 3.75241 4.2163 3.75241 4.62275C3.75241 5.00937 3.75241 5.00937 3.36209 5.00937C2.93822 5.00937 2.93822 5.00937 2.93822 4.6054C2.93822 4.2163 2.93822 4.2163 3.33007 4.2163ZM3.33007 4.2163C3.75241 4.2163 3.75241 4.2163 3.75241 4.62275C3.75241 5.00937 3.75241 5.00937 3.36209 5.00937C2.93822 5.00937 2.93822 5.00937 2.93822 4.6054C2.93822 4.2163 2.93822 4.2163 3.33007 4.2163ZM17.1327 4.2163C17.5464 4.2163 17.5464 4.2163 17.5464 4.60738C17.5464 5.00937 17.5464 5.00937 17.1444 5.00937C16.7328 5.00937 16.7328 5.00937 16.7328 4.59747C16.7328 4.2163 16.7328 4.2163 17.1327 4.2163Z" fill="white"/>
<path d="M10.2332 10.9406C10.3939 10.9422 10.5533 10.9128 10.7022 10.854C10.8512 10.7952 10.9867 10.7081 11.1009 10.5979C11.2151 10.4877 11.3058 10.3565 11.3677 10.2119C11.4296 10.0673 11.4616 9.91216 11.4616 9.75546C11.4702 9.59405 11.445 9.43262 11.3875 9.28104C11.33 9.12945 11.2414 8.99088 11.1272 8.87378C11.013 8.75669 10.8755 8.66352 10.7231 8.59997C10.5707 8.53642 10.4067 8.50382 10.2409 8.50415C10.0752 8.50449 9.91131 8.53776 9.75921 8.60193C9.60711 8.6661 9.47001 8.75983 9.35628 8.87739C9.24255 8.99495 9.15458 9.13388 9.09773 9.2857C9.04088 9.43752 9.01636 9.59904 9.02564 9.76041C9.02684 10.0726 9.15437 10.3718 9.3805 10.5928C9.60663 10.8138 9.91308 10.9388 10.2332 10.9406Z" fill="#FEFEFE"/>
<path d="M6.99934 13.5681C6.99934 13.6742 7.0217 13.7168 7.14113 13.7168C7.8608 13.7114 8.58046 13.7124 9.30063 13.7168C9.40228 13.7168 9.44903 13.6891 9.43277 13.587C9.43226 13.5792 9.43226 13.5714 9.43277 13.5637C9.42108 13.358 9.51917 13.0938 9.39465 12.9619C9.27928 12.839 9.00636 12.9312 8.80307 12.9262C8.54895 12.9203 8.29483 12.9148 8.04427 12.9262C7.86893 12.9357 7.79828 12.9 7.80692 12.7072C7.82522 12.3146 7.80692 11.9205 7.81505 11.5275C7.8176 11.3966 7.80032 11.3267 7.63971 11.3406C7.43642 11.3584 7.1701 11.2786 7.04406 11.3778C6.91802 11.4769 7.01052 11.752 7.0034 11.9493C6.99629 12.1466 7.0034 12.3503 7.0034 12.551C7.00188 12.8896 7.00543 13.2291 6.99934 13.5681Z" fill="#FEFEFE"/>
<path d="M16.7326 4.59748C16.7326 5.00938 16.7326 5.00938 17.1442 5.00938C17.5463 5.00938 17.5463 5.00938 17.5463 4.60739C17.5463 4.21631 17.5463 4.21631 17.1326 4.21631C16.7326 4.21631 16.7326 4.21631 16.7326 4.59748Z" fill="#FEFEFE"/>
<path d="M2.938 4.60541C2.938 5.00938 2.938 5.00938 3.36187 5.00938C3.75169 5.00938 3.75169 5.00938 3.7522 4.62276C3.7522 4.21631 3.7522 4.21631 3.32985 4.21631C2.938 4.21631 2.938 4.21631 2.938 4.60541Z" fill="#FEFEFE"/>
<path d="M9.0221 9.76041C9.03959 10.0643 9.17586 10.3501 9.40288 10.559C9.6299 10.7679 9.93039 10.884 10.2425 10.8834C10.5546 10.8827 10.8546 10.7654 11.0807 10.5556C11.3068 10.3458 11.4419 10.0594 11.4581 9.75546C11.4667 9.59405 11.4415 9.43262 11.384 9.28104C11.3265 9.12945 11.2379 8.99088 11.1237 8.87378C11.0094 8.75669 10.8719 8.66352 10.7196 8.59997C10.5672 8.53642 10.4031 8.50382 10.2374 8.50415C10.0717 8.50449 9.90777 8.53776 9.75567 8.60193C9.60357 8.6661 9.46647 8.75983 9.35274 8.87739C9.23901 8.99495 9.15104 9.13388 9.09419 9.2857C9.03734 9.43752 9.01281 9.59904 9.0221 9.76041Z" fill="white"/>
<path d="M6.99934 13.5681C6.99934 13.6742 7.0217 13.7168 7.14113 13.7168C7.8608 13.7114 8.58046 13.7124 9.30063 13.7168C9.40228 13.7168 9.44903 13.6891 9.43277 13.587C9.43226 13.5792 9.43226 13.5714 9.43277 13.5637C9.42108 13.358 9.51917 13.0938 9.39465 12.9619C9.27928 12.839 9.00636 12.9312 8.80307 12.9262C8.54895 12.9203 8.29483 12.9148 8.04427 12.9262C7.86893 12.9357 7.79828 12.9 7.80692 12.7072C7.82522 12.3146 7.80692 11.9205 7.81505 11.5275C7.8176 11.3966 7.80032 11.3267 7.63971 11.3406C7.43642 11.3584 7.1701 11.2786 7.04406 11.3778C6.91802 11.4769 7.01052 11.752 7.0034 11.9493C6.99629 12.1466 7.0034 12.3503 7.0034 12.551C7.00188 12.8896 7.00543 13.2291 6.99934 13.5681Z" fill="white"/>
<path d="M16.7326 4.59748C16.7326 5.00938 16.7326 5.00938 17.1442 5.00938C17.5463 5.00938 17.5463 5.00938 17.5463 4.60739C17.5463 4.21631 17.5463 4.21631 17.1326 4.21631C16.7326 4.21631 16.7326 4.21631 16.7326 4.59748Z" fill="white"/>
<path d="M2.938 4.60541C2.938 5.00938 2.938 5.00938 3.36187 5.00938C3.75169 5.00938 3.75169 5.00938 3.7522 4.62276C3.7522 4.21631 3.7522 4.21631 3.32985 4.21631C2.938 4.21631 2.938 4.21631 2.938 4.60541Z" fill="white"/>
<path d="M9.8399 9.75444C9.83741 9.85843 9.87737 9.95912 9.951 10.0344C10.0246 10.1096 10.1259 10.1533 10.2325 10.1557C10.2853 10.1569 10.3378 10.1479 10.3871 10.1294C10.4363 10.1108 10.4813 10.0829 10.5195 10.0473C10.5967 9.97553 10.6414 9.87677 10.6439 9.77278C10.6464 9.6688 10.6065 9.56811 10.5328 9.49286C10.4592 9.41761 10.3579 9.37397 10.2513 9.37154C10.1447 9.3691 10.0415 9.40808 9.9643 9.47989C9.88714 9.5517 9.8424 9.65046 9.8399 9.75444Z" fill="#FCFCFC"/>
</g>
<defs>
<clipPath id="clip0_190_192">
<rect width="19.5" height="23.7391" fill="white" transform="matrix(-1 0 0 1 20 0.260864)"/>
</clipPath>
</defs>
</svg>
