<svg width="24" height="24" viewBox="0 0 24 24" fill="none" xmlns="http://www.w3.org/2000/svg">
<g clip-path="url(#clip0_618_1151)">
<path d="M20 3H19V1H17V3H7V1H5V3H4C2.9 3 2 3.9 2 5V21C2 22.1 2.9 23 4 23H20C21.1 23 22 22.1 22 21V5C22 3.9 21.1 3 20 3ZM20 21H4V10H20V21ZM20 8H4V5H20V8Z" fill="#999999"/>
<path d="M11.25 18L10.9052 18.3621L11.2097 18.6521L11.5476 18.4018L11.25 18ZM18.4945 13.0737C18.5352 12.8005 18.3468 12.5461 18.0737 12.5055L13.6227 11.8426C13.3496 11.8019 13.0952 11.9903 13.0545 12.2634C13.0139 12.5366 13.2023 12.791 13.4754 12.8316L17.4318 13.4209L16.8426 17.3773C16.8019 17.6504 16.9903 17.9048 17.2634 17.9455C17.5366 17.9861 17.791 17.7977 17.8316 17.5246L18.4945 13.0737ZM5.65517 13.3621L10.9052 18.3621L11.5948 17.6379L6.34483 12.6379L5.65517 13.3621ZM11.5476 18.4018L18.2976 13.4018L17.7024 12.5982L10.9524 17.5982L11.5476 18.4018Z" fill="#999999"/>
</g>
<defs>
<clipPath id="clip0_618_1151">
<rect width="24" height="24" fill="white"/>
</clipPath>
</defs>
</svg>
